<?xml version="1.0" encoding="iso-8859-1"?>
<!-- Generator: Adobe Illustrator 18.0.0, SVG Export Plug-In . SVG Version: 6.00 Build 0)  -->
<!DOCTYPE svg PUBLIC "-//W3C//DTD SVG 1.1//EN" "http://www.w3.org/Graphics/SVG/1.1/DTD/svg11.dtd">
<svg version="1.1" id="Capa_1" xmlns="http://www.w3.org/2000/svg" xmlns:xlink="http://www.w3.org/1999/xlink" x="0px" y="0px"
	 viewBox="0 0 245.71 245.71" style="enable-background:new 0 0 245.71 245.71;" xml:space="preserve">
<path d="M221.753,137.628c7.422-21.693-7.607-79.333-26.063-86.179c-18.45-6.852-30.249-7.613-30.249-7.613
	s-49.919-26.932-61.771,15.73c0,0-32.35,1.21-59.585,31.674c-26.892,5.907-44.38,35.751-44.082,43.21
	c2.386-0.407,11.531-5.021,11.531-5.021c4.821-14.658,14.127-17.507,17.232-17.199l0.778-0.567
	c-12.523,22.15-21.745,53.669-22.334,98.598h2.332h24.784h7.419c0,0-0.166-7.62-5.212-12.976
	c4.053-14.738,9.387-32.706,12.299-31.924c2.913,0.788-2.216,44.899-2.216,44.899h2.336h29.134h3.071c0,0-0.168-7.552-5.155-12.906
	c0.576-28.01,9.592-42.59,36.499-38.415c6.624,1.027-12.537,51.321-12.537,51.321h6.878h29.256h2.952c0,0-0.245-11.123-9.049-15.931
	c0.186-5.398,1.684-21.067,6.097-21.378c4.42-0.306,18.442,37.309,18.442,37.309h29.985h2.219c0,0-0.319-15.195-14.263-17.757
	c-2.044-4.568-3.404-9.075-4.943-13.972c-3.432-10.843-12.942-44.895-12.942-44.895s-0.897-4.081,3.613-6.096
	c6.447-2.893,7.425-3.049,8.948,0c1.519,3.045,3.605,5.517,7.035,3.999c3.426-1.521,4.943-0.577,6.848,1.903
	c1.903,2.468,14.268,15.41,14.268,15.41s0.318,0.281,0.885,0.748c0.695,0.77,1.352,2.138,0.066,4.003
	c-2.09,3.045-3.236,4.191-5.324,4.38c-2.098,0.185-6.277-1.143-4.186-3.233c2.089-2.097,0.763-3.803-1.523-6.091
	c-2.282-2.282-4.947-4.37-7.038,0.381c-2.088,4.752-10.649,23.774,11.035,23.022c8.557-0.448,15.764-4.858,21.775-12.853
	c9.752,4.933,22.676,8.794,34.709,3.866c-12.807-2.763-21.65-5.162-29.771-11.73C218.06,147.322,220.005,142.761,221.753,137.628z"
	/>
<g>
</g>
<g>
</g>
<g>
</g>
<g>
</g>
<g>
</g>
<g>
</g>
<g>
</g>
<g>
</g>
<g>
</g>
<g>
</g>
<g>
</g>
<g>
</g>
<g>
</g>
<g>
</g>
<g>
</g>
</svg>
