<svg id="Layer_2" height="512" viewBox="0 0 128 128" width="512" xmlns="http://www.w3.org/2000/svg" data-name="Layer 2"><path d="m98.017 64.9a27.6 27.6 0 0 0 -14.431-15.658c-6.472 3.458-10.706 9.181-10.706 15.658 0 .455.026.906.067 1.353l13.027 13.026a27.178 27.178 0 0 0 12.043-14.379z" fill="#e6e6e6"/><path d="m64 1.75a62.25 62.25 0 1 0 62.25 62.25 62.25 62.25 0 0 0 -62.25-62.25zm52.25 62.25a52.012 52.012 0 0 1 -12.128 33.427l-73.549-73.549a52.218 52.218 0 0 1 85.677 40.122zm-104.5 0a52 52 0 0 1 11.789-33.016l73.477 73.477a52.217 52.217 0 0 1 -85.266-40.461z" fill="#fd5f7e"/><circle cx="85.038" cy="64.899" fill="#358bd8" r="4.007"/><path d="m73.686 46.377a7.788 7.788 0 0 0 -7.637-6.277h-16.894v2.355l6.708 6.708a32.3 32.3 0 0 1 13.761-3.045 33.33 33.33 0 0 1 4.062.259z" fill="#e6e6e6"/><g fill="#475c70"><path d="m48.973 85.346v2.554h1.548a9.876 9.876 0 0 0 9-5.814 32.672 32.672 0 0 0 10.1 1.6 33.132 33.132 0 0 0 6.045-.563l-28.138-28.15a27.337 27.337 0 0 0 -3.036 3.582 11.7 11.7 0 0 0 -11.5-9.594h-3.009v7.2a8.743 8.743 0 0 0 8.744 8.739 8.744 8.744 0 0 0 -8.744 8.744v7.194h3.006a11.7 11.7 0 0 0 11.5-9.593 28.354 28.354 0 0 0 8.248 7.7 7.326 7.326 0 0 0 -3.764 6.401z"/><path d="m83.586 49.242a32.732 32.732 0 0 0 -27.727-.078l17.088 17.088c-.041-.447-.067-.9-.067-1.353 0-6.476 4.234-12.199 10.706-15.657z"/></g></svg>