<?xml version="1.0" encoding="UTF-8" standalone="no"?>
<svg
   xmlns:dc="http://purl.org/dc/elements/1.1/"
   xmlns:cc="http://creativecommons.org/ns#"
   xmlns:rdf="http://www.w3.org/1999/02/22-rdf-syntax-ns#"
   xmlns:svg="http://www.w3.org/2000/svg"
   xmlns="http://www.w3.org/2000/svg"
   xmlns:sodipodi="http://sodipodi.sourceforge.net/DTD/sodipodi-0.dtd"
   xmlns:inkscape="http://www.inkscape.org/namespaces/inkscape"
   width="263.97476mm"
   height="200.02028mm"
   viewBox="0 0 263.97476 200.02028"
   version="1.1"
   id="svg8"
   inkscape:version="1.0.2 (e86c8708, 2021-01-15)">
  <defs
     id="defs2" />
  <sodipodi:namedview
     id="base"
     pagecolor="#ffffff"
     bordercolor="#666666"
     borderopacity="1.0"
     inkscape:pageopacity="0.0"
     inkscape:pageshadow="2"
     inkscape:zoom="0.35722441"
     inkscape:cx="715.5571"
     inkscape:cy="553.83679"
     inkscape:document-units="mm"
     inkscape:current-layer="layer1"
     inkscape:document-rotation="0"
     showgrid="false"
     inkscape:pagecheckerboard="true"
     inkscape:window-width="1252"
     inkscape:window-height="847"
     inkscape:window-x="138"
     inkscape:window-y="42"
     inkscape:window-maximized="0" />
  <metadata
     id="metadata5">
    <rdf:RDF>
      <cc:Work
         rdf:about="">
        <dc:format>image/svg+xml</dc:format>
        <dc:type
           rdf:resource="http://purl.org/dc/dcmitype/StillImage" />
        <dc:title></dc:title>
      </cc:Work>
    </rdf:RDF>
  </metadata>
  <g
     inkscape:label="Layer 1"
     inkscape:groupmode="layer"
     id="layer1"
     transform="translate(329.6009,485.19392)">
    <path
       style="fill:none;stroke:#ffffff;stroke-width:0.264583px;stroke-linecap:butt;stroke-linejoin:miter;stroke-opacity:1"
       d="m -223.56299,-484.9468 2.52138,48.74684 -58.83236,61.35375 H -323.578 l -5.88325,-41.18266 61.35375,-68.91793 z"
       id="path861" />
    <path
       style="fill:none;stroke:#ffffff;stroke-width:0.264583px;stroke-linecap:butt;stroke-linejoin:miter;stroke-opacity:1"
       d="M -223.56299,-484.9468 Z"
       id="path863" />
    <path
       style="fill:none;stroke:#ffffff;stroke-width:0.264583px;stroke-linecap:butt;stroke-linejoin:miter;stroke-opacity:1"
       d="m -262.88551,-466.24978 -60.69249,91.40357 86.3197,-64.12299 13.69531,-45.9776 z"
       id="path865" />
    <path
       style="fill:none;stroke:#ffffff;stroke-width:0.264583px;stroke-linecap:butt;stroke-linejoin:miter;stroke-opacity:1"
       d="m -268.1075,-484.9468 5.22199,18.69702 25.62721,27.28058 16.21669,2.76924 v 0 0"
       id="path867" />
    <path
       style="fill:none;stroke:#ffffff;stroke-width:0.264583px;stroke-linecap:butt;stroke-linejoin:miter;stroke-opacity:1"
       d="m -198.08845,-414.28911 -58.28123,27.69391 -4.1334,64.068 54.97448,37.20078 56.62785,-28.10726 5.78679,-64.06801 z"
       id="path869" />
    <path
       style="fill:none;stroke:#ffffff;stroke-width:0.264583px;stroke-linecap:butt;stroke-linejoin:miter;stroke-opacity:1"
       d="m -198.08845,-414.28911 -1.65337,43.81425 -28.10725,12.40026 -2.8934,30.17395 26.86723,19.84042 31.00065,-14.05363 1.24003,-33.4807 -28.93394,-16.12034"
       id="path871" />
    <path
       style="fill:none;stroke:#ffffff;stroke-width:0.264583px;stroke-linecap:butt;stroke-linejoin:miter;stroke-opacity:1"
       d="m -143.11396,-377.50169 -28.5206,21.90713"
       id="path873" />
    <path
       style="fill:none;stroke:#ffffff;stroke-width:0.264583px;stroke-linecap:butt;stroke-linejoin:miter;stroke-opacity:1"
       d="m -172.87459,-322.11386 23.97384,8.68018"
       id="path875" />
    <path
       style="fill:none;stroke:#ffffff;stroke-width:0.264583px;stroke-linecap:butt;stroke-linejoin:miter;stroke-opacity:1"
       d="m -203.87524,-308.06023 -1.65336,22.73381"
       id="path877" />
    <path
       style="fill:none;stroke:#ffffff;stroke-width:0.264583px;stroke-linecap:butt;stroke-linejoin:miter;stroke-opacity:1"
       d="m -230.74247,-327.90065 -29.76061,5.37345"
       id="path879" />
    <path
       style="fill:none;stroke:#ffffff;stroke-width:0.264583px;stroke-linecap:butt;stroke-linejoin:miter;stroke-opacity:1"
       d="m -227.84907,-358.0746 -28.52061,-28.5206"
       id="path881" />
    <path
       style="fill:none;stroke:#ffffff;stroke-width:0.264583px;stroke-linecap:butt;stroke-linejoin:miter;stroke-opacity:1"
       d="m -178.23643,-474.2038 56.62785,0.41333 16.12034,23.14715 -42.98757,47.53433 -45.88096,-47.94766 z"
       id="path883" />
    <path
       style="fill:none;stroke:#ffffff;stroke-width:0.264583px;stroke-linecap:butt;stroke-linejoin:miter;stroke-opacity:1"
       d="m -194.35677,-451.05665 28.10726,0.41333 33.06736,-0.82669 27.69391,0.82669 v 0 0"
       id="path885" />
    <path
       style="fill:none;stroke:#ffffff;stroke-width:0.264583px;stroke-linecap:butt;stroke-linejoin:miter;stroke-opacity:1"
       d="m -150.54252,-473.37711 -15.29365,22.73379 17.36036,47.53433 v 0 l 15.707,-47.94766 z"
       id="path887" />
    <path
       style="fill:none;stroke:#ffffff;stroke-width:0.264583px;stroke-linecap:butt;stroke-linejoin:miter;stroke-opacity:1"
       d="m -92.475153,-416.57702 -39.995817,22.96057 22.21988,45.18051 44.439846,-27.40456 z"
       id="path889" />
    <path
       style="fill:none;stroke:#ffffff;stroke-width:0.264583px;stroke-linecap:butt;stroke-linejoin:miter;stroke-opacity:1"
       d="m -92.475153,-416.57702 -4.443987,21.47924 -17.03524,8.14732 5.92528,17.77592 20.738595,-8.14729 -9.628635,-17.77595"
       id="path891" />
    <path
       style="fill:none;stroke:#ffffff;stroke-width:0.264583px;stroke-linecap:butt;stroke-linejoin:miter;stroke-opacity:1"
       d="m -87.290505,-377.32183 21.479261,1.48133 v 0 0"
       id="path893" />
    <path
       style="fill:none;stroke:#ffffff;stroke-width:0.264583px;stroke-linecap:butt;stroke-linejoin:miter;stroke-opacity:1"
       d="m -108.0291,-369.17454 -2.22199,20.7386"
       id="path895" />
    <path
       style="fill:none;stroke:#ffffff;stroke-width:0.264583px;stroke-linecap:butt;stroke-linejoin:miter;stroke-opacity:1"
       d="m -113.95438,-386.95046 -18.51659,-6.66599"
       id="path897" />
    <path
       style="fill:#fef9cd;fill-opacity:1;stroke:#ffffff;stroke-width:1.95955;stroke-linejoin:round;stroke-opacity:1"
       d="m -815.71337,-1200.5039 c -23.86455,-17.7624 -45.78305,-34.0257 -48.70777,-36.1407 -5.20916,-3.767 -5.21474,-4.98 -0.27336,-59.4385 l 5.04433,-55.593 53.6977,-23.7545 53.69769,-23.7546 50.78803,28.1163 50.78803,28.1163 -1.66655,53.1878 c -2.46655,78.7194 4.35184,67.693 -59.84278,96.7753 -29.99508,13.5888 -55.79622,24.7235 -57.33587,24.7439 -1.53965,0.02 -22.3249,-14.4959 -46.18945,-32.2583 z"
       id="path927"
       transform="scale(0.26458333)" />
    <path
       style="fill:#fef9cd;fill-opacity:1;stroke:#ffffff;stroke-width:1.95955;stroke-linejoin:round;stroke-opacity:1"
       d="m -702.92563,-1376.0988 c -36.01121,-20.0913 -50.64901,-29.6724 -49.86483,-32.6388 0.61052,-2.3095 1.98527,-36.6649 3.055,-76.3455 1.06974,-39.6805 2.81604,-72.6848 3.88067,-73.3428 1.06464,-0.6579 46.8039,28.7126 101.64281,65.268 l 99.70711,66.4643 -50.81511,39.0711 c -27.94832,21.4892 -52.12365,39.2719 -53.72296,39.5173 -1.5993,0.2454 -25.84651,-12.3517 -53.88269,-27.9936 z"
       id="path929"
       transform="scale(0.26458333)" />
    <path
       style="fill:#fef9cd;fill-opacity:1;stroke:#ffffff;stroke-width:1.95955;stroke-linejoin:round;stroke-opacity:1"
       d="m -879.25704,-1150.4516 c -54.04453,-36.5914 -97.95536,-66.8574 -97.57961,-67.2579 0.75889,-0.8088 85.41079,-16.3878 97.2124,-17.8906 5.92473,-0.7544 17.72022,6.5848 56.93824,35.4275 l 49.46543,36.3791 -1.95933,36.3917 c -1.07763,20.0154 -2.82671,37.9865 -3.88684,39.9358 -1.33816,2.4606 -31.97215,-16.7978 -100.19029,-62.9856 z"
       id="path931"
       transform="scale(0.26458333)" />
    <path
       style="fill:#ddad4d;fill-opacity:1;stroke:#ffffff;stroke-width:1.95955;stroke-linejoin:round;stroke-opacity:1"
       d="m -912.06844,-1408.5145 -52.30458,-52.359 106.52248,-50.676 106.52247,-50.676 -0.0478,14.4582 c -0.0377,11.4147 -5.16056,129.5274 -6.23417,143.7363 -0.13742,1.8188 -9.17283,7.0733 -20.07867,11.6766 -10.90584,4.6033 -33.83423,14.6312 -50.95197,22.2842 l -31.12316,13.9147 z"
       id="path933"
       transform="scale(0.26458333)" />
    <path
       style="fill:#ddad4d;fill-opacity:1;stroke:#ffffff;stroke-width:1.95955;stroke-linejoin:round;stroke-opacity:1"
       d="m -607.9767,-1202.9232 c -22.00371,-8.116 -40.71905,-15.4688 -41.58964,-16.3393 -0.87058,-0.8706 -0.6321,-29.057 0.52996,-62.6365 l 2.11285,-61.0536 50.62753,-38.6313 c 27.84514,-21.2473 51.01474,-37.4697 51.48801,-36.0499 0.47326,1.4198 -3.60007,52.1862 -9.05185,112.8144 -5.45178,60.6281 -9.91204,111.8076 -9.91169,113.7321 8.3e-4,4.6291 1.57949,5.0518 -44.20517,-11.8359 z"
       id="path935"
       transform="scale(0.26458333)" />
    <path
       style="fill:#ddad4d;fill-opacity:1;stroke:#ffffff;stroke-width:1.95955;stroke-linejoin:round;stroke-opacity:1"
       d="m -772.26123,-1116.2453 c 1.13627,-18.1855 2.93387,-36.3098 3.99467,-40.2763 1.65197,-6.1769 10.04295,-10.9132 58.47775,-33.0077 l 56.54903,-25.7959 39.83556,14.3254 c 21.90955,7.879 40.81247,15.1598 42.00648,16.1795 1.64046,1.401 -178.79987,92.1466 -199.12813,100.144 -3.14126,1.2358 -3.44258,-4.2458 -1.73536,-31.569 z"
       id="path937"
       transform="scale(0.26458333)" />
    <path
       style="fill:#f4d98f;fill-opacity:1;stroke:#ffffff;stroke-width:1.95955;stroke-linejoin:round;stroke-opacity:1"
       d="m -982.0233,-1227.3358 c 0.51154,-3.543 3.58427,-51.7914 6.82829,-107.2187 3.24402,-55.4274 6.75719,-104.8937 7.80703,-109.9251 l 1.90881,-9.1482 51.16922,51.2472 51.16923,51.2471 -5.2802,53.8463 c -2.90411,29.6154 -5.95139,54.5174 -6.77173,55.3377 -0.82035,0.8204 -22.10027,5.183 -47.28871,9.6947 -25.18844,4.5116 -49.09901,8.9135 -53.13459,9.7819 -6.41342,1.38 -7.22029,0.7676 -6.40735,-4.8629 z"
       id="path939"
       transform="scale(0.26458333)" />
    <path
       style="fill:#f4d98f;fill-opacity:1;stroke:#ffffff;stroke-width:1.95955;stroke-linejoin:round;stroke-opacity:1"
       d="m -910.23576,-1409.4807 -51.07554,-51.1315 104.10447,-49.5995 c 57.25746,-27.2797 104.30586,-49.3052 104.552,-48.9455 1.21901,1.781 -4.66975,133.9171 -6.45265,144.7891 l -2.0606,12.5653 -47.56801,21.5381 c -26.1624,11.846 -48.21064,21.6231 -48.99607,21.7269 -0.78543,0.1038 -24.41205,-22.8205 -52.5036,-50.9429 z"
       id="path941"
       transform="scale(0.26458333)" />
    <path
       style="fill:#f4d98f;fill-opacity:1;stroke:#ffffff;stroke-width:1.95955;stroke-linejoin:round;stroke-opacity:1"
       d="m -609.26051,-1205.0273 -38.49121,-14.4512 v -45.2301 c 0,-24.8765 0.78009,-52.6937 1.73355,-61.8158 l 1.73355,-16.5857 47.53691,-35.798 c 26.14531,-19.6889 48.2101,-35.1248 49.03288,-34.3021 2.77302,2.7731 -17.15763,222.8271 -20.17288,222.7285 -1.58488,-0.052 -20.20264,-6.5974 -41.3728,-14.5456 z"
       id="path943"
       transform="scale(0.26458333)" />
    <path
       style="fill:#f4d98f;fill-opacity:1;stroke:#ffffff;stroke-width:1.95955;stroke-linejoin:round;stroke-opacity:1"
       d="m -770.0637,-1120.9131 c 1.38887,-27.623 2.6755,-35.0629 6.77211,-39.1595 4.91251,-4.9125 104.65982,-52.7097 109.99914,-52.7097 5.6928,0 75.52474,26.3522 75.52474,28.5004 0,2.1007 -188.02596,97.4708 -192.16758,97.4708 -1.01367,0 -1.07145,-15.3459 -0.12841,-34.102 z"
       id="path945"
       transform="scale(0.26458333)" />
    <path
       style="fill:#8cb4b8;fill-opacity:1;stroke:#ffffff;stroke-width:1.95955;stroke-linejoin:round;stroke-opacity:1"
       d="m -592.85946,-1616.1698 c -16.76854,-46.1143 -29.99551,-84.3063 -29.39329,-84.8712 1.43051,-1.3417 117.26842,-3.4592 117.26842,-2.1436 0,2.8906 -54.16149,167.3635 -55.64157,168.9675 -0.95993,1.0403 -15.46503,-35.8385 -32.23356,-81.9527 z"
       id="path947"
       transform="scale(0.26458333)" />
    <path
       style="fill:#8cb4b8;fill-opacity:1;stroke:#ffffff;stroke-width:1.95955;stroke-linejoin:round;stroke-opacity:1"
       d="m -596.67302,-1744.5833 c 14.24704,-21.5125 26.85806,-38.8303 28.02447,-38.4842 1.16642,0.3462 15.21911,17.0025 31.22821,37.014 l 29.10744,36.3846 -27.02916,1.7708 c -14.86604,0.9738 -40.5754,1.9186 -57.13192,2.0995 l -30.10276,0.3288 z"
       id="path949"
       transform="scale(0.26458333)" />
    <path
       style="fill:#8cb4b8;fill-opacity:1;stroke:#ffffff;stroke-width:1.95955;stroke-linejoin:round;stroke-opacity:1"
       d="m -480.28488,-1707.5469 -21.49,-0.9504 -32.45627,-40.4767 -32.45627,-40.4766 h 52.63447 52.63447 l 26.71748,38.4912 c 14.69462,21.1701 27.64147,40.0658 28.77078,41.9904 2.08171,3.5476 -17.72632,3.9264 -74.35466,1.4221 z"
       id="path951"
       transform="scale(0.26458333)" />
    <path
       style="fill:#8cb4b8;fill-opacity:1;stroke:#ffffff;stroke-width:1.95955;stroke-linejoin:round;stroke-opacity:1"
       d="m -552.57346,-1540.4067 c 0,-2.254 11.97287,-40.0176 26.60637,-83.919 l 26.60636,-79.8207 41.27814,0.8444 c 22.70297,0.4645 44.31219,1.1115 48.02049,1.4378 5.83558,0.5136 -2.77567,11.135 -64.02924,78.9755 -88.16208,97.6427 -78.48212,87.4694 -78.48212,82.482 z"
       id="path953"
       transform="scale(0.26458333)" />
    <path
       style="fill:#8cb4b8;fill-opacity:1;stroke:#ffffff;stroke-width:1.95955;stroke-linejoin:round;stroke-opacity:1"
       d="m -649.67507,-1619.3625 -78.38534,-81.9083 48.95276,-0.766 c 26.92402,-0.4214 49.43781,-0.2811 50.03065,0.3118 2.11162,2.1116 59.79266,162.2653 58.79932,163.2586 -0.55663,0.5567 -36.28546,-35.8466 -79.39739,-80.8961 z"
       id="path955"
       transform="scale(0.26458333)" />
    <path
       style="fill:#a2c5c8;fill-opacity:1;stroke:#ffffff;stroke-width:1.95955;stroke-linejoin:round;stroke-opacity:1"
       d="m -704.73447,-1743.961 c 14.71442,-21.1702 28.27633,-40.0959 30.13758,-42.0572 2.54909,-2.6861 15.62434,-3.3768 52.9917,-2.7994 l 49.60762,0.7666 -28.24863,41.2906 -28.24863,41.2906 h -51.49657 -51.49656 z"
       id="path957"
       transform="scale(0.26458333)" />
    <path
       style="fill:#a2c5c8;fill-opacity:1;stroke:#ffffff;stroke-width:1.95955;stroke-linejoin:round;stroke-opacity:1"
       d="m -516.67982,-1729.9642 c -9.78815,-11.9323 -24.51936,-30.2271 -32.73604,-40.655 l -14.93941,-18.96 51.00681,0.7641 51.00681,0.7641 27.53741,39.8909 27.53742,39.8909 h -45.80819 -45.80819 z"
       id="path959"
       transform="scale(0.26458333)" />
    <path
       style="fill:#a2c5c8;fill-opacity:1;stroke:#ffffff;stroke-width:1.95955;stroke-linejoin:round;stroke-opacity:1"
       d="m -582.78885,-1594.1952 c -23.74895,-63.6208 -37.35709,-103.4218 -35.86909,-104.9098 2.42162,-2.4217 110.87713,-4.2815 110.92091,-1.9022 0.09,4.8916 -51.49819,160.6997 -53.20781,160.6997 -0.95057,0 -10.78037,-24.2495 -21.84401,-53.8877 z"
       id="path961"
       transform="scale(0.26458333)" />
    <path
       style="fill:#eebcad;fill-opacity:1;stroke:#ffffff;stroke-width:1.95955;stroke-linejoin:round;stroke-opacity:1"
       d="m -416.69579,-1428.007 c -5.44854,-16.3514 -9.90644,-30.7545 -9.90644,-32.0067 0,-2.2214 58.87403,-30.9271 60.12851,-29.3174 3.31006,4.2474 32.61452,61.561 31.85503,62.302 -0.55237,0.539 -17.01674,7.2287 -36.58749,14.866 l -35.58317,13.8861 z"
       id="path971"
       transform="scale(0.26458333)" />
    <path
       style="fill:#eebcad;fill-opacity:1;stroke:#ffffff;stroke-width:1.95955;stroke-linejoin:round;stroke-opacity:1"
       d="m -298.78847,-1425.6381 c -15.15292,-1.1491 -28.58025,-3.1703 -29.83852,-4.4917 -1.25826,-1.3213 -9.74998,-16.1269 -18.87049,-32.9013 l -16.58275,-30.499 6.78625,-33.8863 c 3.73244,-18.6375 7.71554,-34.8678 8.85135,-36.0674 1.13581,-1.1995 20.78201,26.5142 43.65823,61.586 22.87623,35.0718 43.96253,67.2311 46.85846,71.4652 l 5.26532,7.6982 -9.28854,-0.4072 c -5.1087,-0.2239 -21.68639,-1.3473 -36.83931,-2.4965 z"
       id="path973"
       transform="scale(0.26458333)" />
    <path
       style="fill:#eebcad;fill-opacity:1;stroke:#ffffff;stroke-width:1.95955;stroke-linejoin:round;stroke-opacity:1"
       d="m -456.8768,-1403.6573 c -20.31119,-41.7879 -36.36149,-76.546 -35.66734,-77.2402 0.69415,-0.6941 14.53812,3.552 30.76436,9.4359 l 29.50227,10.6979 11.0632,33.7113 11.06321,33.7113 -3.49811,31.431 c -1.92396,17.287 -4.12812,32.0609 -4.89813,32.8309 -0.77001,0.77 -18.01827,-32.7901 -38.32946,-74.5781 z"
       id="path975"
       transform="scale(0.26458333)" />
    <path
       style="fill:#eda995;fill-opacity:1;stroke:#ffffff;stroke-width:1.95955;stroke-linejoin:round;stroke-opacity:1"
       d="m -410.81031,-1351.9938 c 1.94423,-16.5824 3.59541,-32.7693 3.66929,-35.9708 0.11187,-4.8482 6.3761,-8.2398 37.48451,-20.2954 40.1183,-15.5471 47.26046,-16.4526 94.87048,-12.0272 l 18.84656,1.7519 -77.19216,47.5891 c -42.45568,26.174 -78.09699,47.9296 -79.2029,48.3457 -1.10591,0.416 -0.42001,-12.8109 1.52422,-29.3933 z"
       id="path977"
       transform="scale(0.26458333)" />
    <path
       style="fill:#eda995;fill-opacity:1;stroke:#ffffff;stroke-width:1.95955;stroke-linejoin:round;stroke-opacity:1"
       d="m -463.80508,-1476.5157 c -16.61245,-6.2229 -29.64017,-11.8787 -28.95049,-12.5684 3.63223,-3.6322 137.22151,-79.066 138.23209,-78.0554 1.20135,1.2013 -1.79187,17.7146 -9.57504,52.8243 l -4.2106,18.994 -27.04703,13.5276 c -14.87587,7.4401 -29.56646,14.2171 -32.64576,15.06 -3.12045,0.8541 -18.9687,-3.476 -35.80317,-9.7821 z"
       id="path979"
       transform="scale(0.26458333)" />
    <path
       style="fill:#eda995;fill-opacity:1;stroke:#ffffff;stroke-width:1.95955;stroke-linejoin:round;stroke-opacity:1"
       d="m -414.8095,-1427.777 c -4.94635,-15.0906 -8.99337,-28.6827 -8.99337,-30.2047 0,-3.0095 55.08487,-31.0297 56.98388,-28.9862 0.63784,0.6863 7.59446,14.1202 15.45916,29.8529 13.5943,27.1945 14.03161,28.7484 8.86782,31.512 -4.10976,2.1995 -61.68089,25.2635 -63.06134,25.2635 -0.14453,0 -4.30979,-12.3469 -9.25615,-27.4375 z"
       id="path981"
       transform="scale(0.26458333)" />
    <path
       style="fill:#7ee4d3;fill-opacity:1;stroke:#ffffff;stroke-width:1.95955;stroke-linejoin:round;stroke-opacity:1"
       d="m -1173.0871,-1487.8195 c 20.4686,-31.1779 69.3608,-104.8692 108.6493,-163.7585 l 71.43366,-107.0715 45.07136,48.2849 c 24.78927,26.5567 45.46907,49.0691 45.95515,50.0276 0.86859,1.7129 -303.54667,229.2045 -306.70727,229.2045 -0.8898,0 15.1292,-25.5091 35.5978,-56.687 z"
       id="path983"
       transform="scale(0.26458333)" />
    <path
       style="fill:#7ee4d3;fill-opacity:1;stroke:#ffffff;stroke-width:1.95955;stroke-linejoin:round;stroke-opacity:1"
       d="m -871.33688,-1656.6534 c -11.34732,-2.0712 -21.01039,-4.1447 -21.47349,-4.6078 -0.46311,-0.4631 9.35566,-35.1542 21.81948,-77.0913 12.46382,-41.937 23.17857,-75.7321 23.81056,-75.1001 1.14335,1.1433 8.88635,130.6546 9.00819,150.673 0.074,12.1671 0.003,12.1802 -33.16474,6.1262 z"
       id="path985"
       transform="scale(0.26458333)" />
    <path
       style="fill:#9edfd4;fill-opacity:1;stroke:#ffffff;stroke-width:1.95955;stroke-linejoin:round;stroke-opacity:1"
       d="m -993.54495,-1770.555 c -0.71287,-1.9245 -4.9012,-16.4112 -9.30735,-32.1926 l -8.0113,-28.6935 h 78.44614 c 43.14539,0 77.92128,0.4128 77.27976,0.9172 -2.57979,2.0286 -133.49292,63.4681 -135.23551,63.4681 -1.03158,0 -2.45886,-1.5746 -3.17174,-3.4992 z"
       id="path987"
       transform="scale(0.26458333)" />
    <path
       style="fill:#9edfd4;fill-opacity:1;stroke:#ffffff;stroke-width:1.95955;stroke-linejoin:round;stroke-opacity:1"
       d="m -876.55581,-1658.6349 c -13.91895,-2.6769 -14.56509,-3.1843 -12.8984,-10.1298 3.0704,-12.7952 39.85773,-135.3251 40.95967,-136.427 1.49887,-1.4989 7.66186,102.3494 7.62096,128.4153 l -0.034,21.6951 -10.4976,-0.3678 c -5.77368,-0.2022 -17.09144,-1.6359 -25.15059,-3.1858 z"
       id="path989"
       transform="scale(0.26458333)" />
    <path
       style="fill:#80b3ab;fill-opacity:1;stroke:#ffffff;stroke-width:1.95955;stroke-linejoin:round;stroke-opacity:1"
       d="m -1199.5848,-1444.4294 c 1.4506,-2.6944 48.5533,-73.9792 104.6728,-158.4107 l 102.03532,-153.5118 43.79189,47.1001 c 24.08553,25.905 43.79188,47.9212 43.79188,48.9247 0,1.361 -207.59309,157.6105 -284.64819,214.2468 -10.6339,7.816 -13.1992,8.2551 -9.6437,1.6509 z"
       id="path991"
       transform="scale(0.26458333)" />
    <path
       style="fill:#80b3ab;fill-opacity:1;stroke:#ffffff;stroke-width:1.95955;stroke-linejoin:round;stroke-opacity:1"
       d="m -943.10102,-1711.7886 c -24.62517,-26.3318 -44.77303,-48.5283 -44.77303,-49.3254 0,-1.6763 136.73328,-67.0876 138.03322,-66.0333 0.75729,0.6143 -46.64143,161.3891 -47.97212,162.7198 -0.28327,0.2832 -20.6629,-21.0292 -45.28807,-47.3611 z"
       id="path993"
       transform="scale(0.26458333)" />
    <path
       style="fill:#80b3ab;fill-opacity:1;stroke:#ffffff;stroke-width:1.95955;stroke-linejoin:round;stroke-opacity:1"
       d="m -1209.0236,-1424.2206 c 3.0793,-2.1955 74.7486,-55.4267 159.2649,-118.2915 l 153.66622,-114.2996 26.43638,4.3644 c 14.54002,2.4004 26.64169,5.1007 26.89259,6.0006 0.25082,0.9 -47.98446,52.2332 -107.18975,114.074 l -107.64594,112.4377 -78.5115,-0.1469 c -68.7541,-0.1285 -77.8158,-0.6429 -72.9129,-4.1387 z"
       id="path995"
       transform="scale(0.26458333)" />
    <path
       style="fill:#9edfd4;fill-opacity:1;stroke:#ffffff;stroke-width:1.95955;stroke-linejoin:round;stroke-opacity:1"
       d="m -1221.8164,-1425.6737 c -0.1077,-0.6929 -4.9311,-33.75 -10.7186,-73.4603 l -10.5229,-72.2006 113.3409,-127.3681 c 62.3375,-70.0525 114.2739,-126.3719 115.4143,-125.1544 1.1403,1.2176 5.7598,15.37 10.2655,31.4498 l 8.1921,29.236 -110.377,166.7192 c -105.8072,159.817 -115.1522,173.6232 -115.5943,170.7784 z"
       id="path997"
       transform="scale(0.26458333)" />
    <path
       style="fill:#9edfd4;fill-opacity:1;stroke:#ffffff;stroke-width:1.95955;stroke-linejoin:round;stroke-opacity:1"
       d="m -1194.6355,-1448.6285 c 19.7559,-32.5879 200.2639,-303.0308 202.25889,-303.0308 0.98978,0 18.15416,17.69 38.14308,39.311 51.25882,55.4441 47.90018,51.1087 42.77214,55.212 -21.2488,17.0027 -281.88351,212.007 -283.35991,212.007 -1.0645,0 -0.9809,-1.5746 0.1858,-3.4992 z"
       id="path999"
       transform="scale(0.26458333)" />
    <path
       style="fill:#80b3ab;fill-opacity:1;stroke:#ffffff;stroke-width:1.95955;stroke-linejoin:round;stroke-opacity:1"
       d="m -1221.6207,-1430.6071 c 0,-1.666 -4.5059,-33.9085 -10.0132,-71.65 l -10.0132,-68.621 79.2974,-88.937 c 96.596,-108.3385 143.2984,-159.0288 146.5176,-159.0288 2.9791,0 18.71285,51.9092 17.04842,56.2466 -1.54392,4.0233 -210.33022,319.1195 -217.44832,328.1687 -2.9638,3.7678 -5.3887,5.4874 -5.3887,3.8215 z"
       id="path1001"
       transform="scale(0.26458333)" />
  </g>
</svg>
