<?xml version="1.0" encoding="UTF-8" standalone="no"?>
<svg
   xmlns:dc="http://purl.org/dc/elements/1.1/"
   xmlns:cc="http://creativecommons.org/ns#"
   xmlns:rdf="http://www.w3.org/1999/02/22-rdf-syntax-ns#"
   xmlns:svg="http://www.w3.org/2000/svg"
   xmlns="http://www.w3.org/2000/svg"
   xmlns:sodipodi="http://sodipodi.sourceforge.net/DTD/sodipodi-0.dtd"
   xmlns:inkscape="http://www.inkscape.org/namespaces/inkscape"
   width="226.82658mm"
   height="154.87798mm"
   viewBox="0 0 226.82658 154.87798"
   version="1.1"
   id="svg8"
   inkscape:version="1.0.2 (e86c8708, 2021-01-15)"
   sodipodi:docname="gems.svg">
  <defs
     id="defs2" />
  <sodipodi:namedview
     id="base"
     pagecolor="#ffffff"
     bordercolor="#666666"
     borderopacity="1.0"
     inkscape:pageopacity="0.0"
     inkscape:pageshadow="2"
     inkscape:zoom="0.32068072"
     inkscape:cx="420.76501"
     inkscape:cy="246.09184"
     inkscape:document-units="mm"
     inkscape:current-layer="layer1"
     inkscape:document-rotation="0"
     showgrid="false"
     inkscape:pagecheckerboard="true"
     inkscape:window-width="915"
     inkscape:window-height="847"
     inkscape:window-x="475"
     inkscape:window-y="25"
     inkscape:window-maximized="0" />
  <metadata
     id="metadata5">
    <rdf:RDF>
      <cc:Work
         rdf:about="">
        <dc:format>image/svg+xml</dc:format>
        <dc:type
           rdf:resource="http://purl.org/dc/dcmitype/StillImage" />
        <dc:title></dc:title>
      </cc:Work>
    </rdf:RDF>
  </metadata>
  <g
     inkscape:label="Layer 1"
     inkscape:groupmode="layer"
     id="layer1"
     transform="translate(301.66919,459.88423)">
    <path
       style="opacity:1;fill:none;stroke:none;stroke-width:0.264583px;stroke-linecap:butt;stroke-linejoin:miter;stroke-opacity:1"
       d="m -253.0391,-434.25818 -22.14597,10.44025 -9.80751,16.76767 -1.26548,35.74993 24.36057,13.60395 35.74993,-0.31637 26.89154,-13.92032 -0.31637,-17.08404 -22.46234,-23.09509 z"
       id="path1524" />
    <path
       style="opacity:1;fill:none;stroke:none;stroke-width:0.264583px;stroke-linecap:butt;stroke-linejoin:miter;stroke-opacity:1"
       d="m -253.0391,-434.25818 26.89154,76.24543 4.11283,-54.09945"
       id="path1526" />
    <path
       style="opacity:1;fill:none;stroke:none;stroke-width:0.264583px;stroke-linecap:butt;stroke-linejoin:miter;stroke-opacity:1"
       d="m -210.32901,-389.96623 -58.84502,-49.03751 23.09509,49.35388"
       id="path1528" />
    <path
       style="opacity:1;fill:none;stroke:none;stroke-width:0.264583px;stroke-linecap:butt;stroke-linejoin:miter;stroke-opacity:1"
       d="m -133.13446,-446.28028 -37.01542,10.75662 -6.96016,39.23001 90.798502,1.89823 -10.756617,-20.24775 -48.404775,-2.84734 z"
       id="path1530" />
    <path
       style="opacity:1;fill:none;stroke:none;stroke-width:0.264583px;stroke-linecap:butt;stroke-linejoin:miter;stroke-opacity:1"
       d="m -133.13446,-446.28028 12.65485,18.34953 23.411453,13.28758 v 0 0"
       id="path1532" />
    <path
       style="opacity:1;fill:none;stroke:none;stroke-width:0.264583px;stroke-linecap:butt;stroke-linejoin:miter;stroke-opacity:1"
       d="m -81.24961,-446.59665 -23.41145,-13.28758 -24.99332,10.44024"
       id="path1534" />
    <path
       style="opacity:1;fill:none;stroke:none;stroke-width:0.264583px;stroke-linecap:butt;stroke-linejoin:miter;stroke-opacity:1"
       d="m -156.54592,-457.35327 -18.6659,7.90928 -8.22565,21.19686 h 22.14598"
       id="path1536" />
    <path
       style="opacity:1;fill:none;stroke:none;stroke-width:0.264583px;stroke-linecap:butt;stroke-linejoin:miter;stroke-opacity:1"
       d="m -130.28712,-402.93744 9.49113,41.76098 -91.43124,-0.63274 8.54202,-18.34952 26.57517,-16.13493 12.0221,-16.13492 z"
       id="path1538" />
    <path
       style="opacity:1;fill:none;stroke:none;stroke-width:0.264583px;stroke-linecap:butt;stroke-linejoin:miter;stroke-opacity:1"
       d="m -165.08794,-412.42857 11.38936,28.15702 -49.98663,4.11283"
       id="path1540" />
    <path
       style="opacity:1;fill:none;stroke:none;stroke-width:0.264583px;stroke-linecap:butt;stroke-linejoin:miter;stroke-opacity:1"
       d="m -177.11004,-396.29365 23.41146,12.0221 v 0"
       id="path1542" />
    <g
       id="g1650"
       transform="matrix(1.115075,-0.29319299,0.29230349,1.1184682,138.40981,80.83419)">
      <path
         style="opacity:1;fill:#666666;stroke:none;stroke-width:1.46859;stroke-linejoin:round"
         d="m 700.31178,251.39984 c 0,-2.69346 41.25093,-96.89213 42.65824,-97.41235 0.9416,-0.34806 7.43242,7.67673 14.42403,17.83287 6.99162,10.15613 16.73332,24.15798 21.64823,31.11521 l 8.9362,12.64951 -35.96591,15.02364 c -19.78125,8.263 -39.50626,16.50875 -43.83335,18.3239 -4.3271,1.81515 -7.86744,2.9254 -7.86744,2.46722 z"
         id="path1602"
         transform="matrix(0.26458333,0,0,0.26458333,-329.6009,-485.19392)" />
      <path
         style="opacity:1;fill:#666666;stroke:none;stroke-width:1.46859;stroke-linejoin:round"
         d="m 495.75836,333.35428 c 0,-1.09157 29.06781,-75.27966 29.76514,-75.96785 1.59856,-1.57761 67.01932,-28.69366 67.5693,-28.0066 0.33808,0.42236 -1.96117,14.92931 -5.10945,32.23768 -3.14828,17.30836 -7.36056,40.67466 -9.36062,51.92509 l -3.63646,20.45535 h -39.61396 c -21.78767,0 -39.61395,-0.28966 -39.61395,-0.64367 z"
         id="path1606"
         transform="matrix(0.26458333,0,0,0.26458333,-329.6009,-485.19392)" />
      <path
         style="opacity:1;fill:#b3b3b3;stroke:none;stroke-width:1.46859;stroke-linejoin:round"
         d="m 745.41843,338.07284 c -89.42656,-2.03673 -163.60039,-3.78679 -164.83074,-3.88902 -2.29966,-0.19108 20.57992,-136.88582 23.88575,-142.70612 1.35923,-2.39309 132.13577,-42.47483 134.1026,-41.10115 0.2753,0.19227 -9.4097,23.38782 -21.52222,51.54565 -12.11252,28.15784 -21.7005,52.1643 -21.30661,53.3477 0.43706,1.31312 35.97196,4.22562 91.18222,7.47346 49.75633,2.92701 90.83089,5.75928 91.27681,6.29396 0.44593,0.53466 9.34188,17.25772 19.76878,37.16234 16.69223,31.86491 18.42491,36.15354 14.49757,35.88327 -2.45324,-0.16882 -77.6276,-1.97336 -167.05416,-4.01009 z"
         id="path1620"
         transform="matrix(0.26458333,0,0,0.26458333,-329.6009,-485.19392)" />
      <path
         style="opacity:1;fill:#cccccc;stroke:none;stroke-width:1.46859;stroke-linejoin:round"
         d="m 802.06399,259.24271 c -24.80866,-1.57362 -54.54758,-3.63407 -66.08649,-4.57877 l -20.97984,-1.71763 10.48992,-4.81986 c 5.76946,-2.65092 22.64896,-9.90624 37.51002,-16.12292 l 27.0201,-11.30306 36.96841,20.95073 c 33.99816,19.26743 36.29415,20.93072 28.57647,20.70168 -4.61557,-0.13697 -28.68993,-1.53655 -53.49859,-3.11017 z"
         id="path1622"
         transform="matrix(0.26458333,0,0,0.26458333,-329.6009,-485.19392)" />
    </g>
    <g
       id="g1644"
       transform="matrix(1.1520422,0,0,1.2207292,37.353911,-31.43171)">
      <path
         style="opacity:1;fill:#666666;stroke:none;stroke-width:0.388564;stroke-linejoin:round"
         d="m -263.96109,-265.15273 c -15.07732,-12.55294 -27.75024,-23.14809 -28.16205,-23.54479 -0.62404,-0.60115 0.005,-2.0195 3.78003,-8.51618 2.49083,-4.28719 4.82609,-8.03982 5.18948,-8.33917 0.95524,-0.78691 21.04549,-10.14445 21.2788,-9.91114 0.43393,0.43394 25.76066,72.70118 25.55195,72.9099 -0.1237,0.12369 -12.56089,-10.04569 -27.63821,-22.59862 z"
         id="path1604" />
      <path
         style="opacity:1;fill:#999999;stroke:none;stroke-width:0.388564;stroke-linejoin:round"
         d="m -247.672,-278.27 c -6.95167,-19.72512 -12.52687,-35.97638 -12.38935,-36.11391 0.13753,-0.13753 6.73884,4.39069 14.66957,10.0627 l 14.41951,10.31275 -0.22818,2.09199 c -0.1255,1.1506 -0.98331,12.33343 -1.90624,24.85075 -0.92294,12.51731 -1.73383,23.18644 -1.80199,23.70917 -0.0682,0.52273 -5.81165,-15.18832 -12.76332,-34.91345 z"
         id="path1616" />
      <path
         style="opacity:1;fill:#999999;stroke:none;stroke-width:0.388564;stroke-linejoin:round"
         d="m -283.25192,-247.53296 -11.02819,-6.15878 0.40936,-15.28406 c 0.22515,-8.40623 0.58014,-15.7457 0.78886,-16.30992 0.27087,-0.73222 3.36456,5.35501 10.80848,21.26704 5.73594,12.26109 10.34364,22.372 10.23933,22.46869 -0.10431,0.0967 -5.15234,-2.59564 -11.21784,-5.98297 z"
         id="path1618" />
      <path
         style="opacity:1;fill:#cccccc;stroke:none;stroke-width:0.388564;stroke-linejoin:round"
         d="m -280.9317,-263.31885 c -5.96793,-12.74629 -10.78099,-23.25713 -10.69569,-23.35742 0.0853,-0.10028 12.5443,10.14115 27.68665,22.75876 l 27.53154,22.94109 -9.58089,0.34869 c -5.26949,0.19178 -12.84563,0.37913 -16.83586,0.41632 l -7.25496,0.0676 z"
         id="path1624" />
      <path
         style="opacity:1;fill:#cccccc;stroke:none;stroke-width:0.388564;stroke-linejoin:round"
         d="m -234.19997,-241.46561 c 0,-1.72361 3.94293,-51.09909 4.09251,-51.24867 0.11495,-0.11495 4.95354,4.68792 10.75242,10.67304 l 10.54342,10.88204 0.4,8.07548 c 0.21999,4.44151 0.18788,8.28758 -0.0714,8.54683 -0.52715,0.52715 -24.92933,13.28292 -25.41064,13.28292 -0.16848,0 -0.30634,-0.0952 -0.30634,-0.21164 z"
         id="path1626" />
    </g>
    <path
       style="opacity:1;fill:none;stroke:none;stroke-width:0.264583px;stroke-linecap:butt;stroke-linejoin:miter;stroke-opacity:1"
       d="m -108.77389,-348.52161 -102.6303,-13.92206 v 0"
       id="path1628" />
    <g
       id="g1637"
       transform="translate(12.19007,-147.45185)">
      <path
         style="opacity:1;fill:#666666;stroke:none;stroke-width:0.264583px;stroke-linecap:butt;stroke-linejoin:miter;stroke-opacity:1"
         d="m -135.68306,-283.35501 20.24775,10.44025 9.17476,21.8296 -10.44025,12.65485 -12.0221,-12.65485"
         id="path1544" />
      <path
         style="opacity:1;fill:#808080;stroke:none;stroke-width:0.388564;stroke-linejoin:round"
         d="m -173.48156,-280.79528 c -5.71846,-2.9346 -10.3972,-5.5441 -10.3972,-5.79889 0,-0.2548 2.42332,-3.69628 5.38515,-7.64775 l 5.38516,-7.18448 5.16632,12.8291 c 2.84147,7.05601 5.09689,12.89852 5.01205,12.98337 -0.0848,0.0848 -4.83302,-2.24676 -10.55148,-5.18135 z"
         id="path1608" />
      <path
         style="opacity:1;fill:#b3b3b3;stroke:none;stroke-width:0.388564;stroke-linejoin:round"
         d="m -208.81162,-271.1592 c 1.00957,-0.92215 23.45574,-14.21711 23.97967,-14.20325 1.45495,0.0385 21.74418,11.06126 20.3814,11.07286 -0.76326,0.006 -10.25532,0.76086 -21.09348,1.67638 -19.02233,1.60684 -23.75896,1.90283 -23.26759,1.45401 z"
         id="path1612" />
      <path
         style="opacity:1;fill:#999999;stroke:none;stroke-width:0.388564;stroke-linejoin:round"
         d="m -197.02542,-252.06536 -22.30568,-0.28701 3.85921,-8.30894 c 2.12256,-4.56992 4.0419,-8.47834 4.2652,-8.68537 0.22329,-0.20703 11.516,-1.2916 25.0949,-2.41016 13.5789,-1.11856 24.75979,-2.10463 24.84644,-2.19127 0.0866,-0.0866 -2.32518,-6.3163 -5.35961,-13.8437 -3.03442,-7.52739 -5.38479,-13.68616 -5.22304,-13.68616 0.16175,0 7.722,2.02726 16.80055,4.50501 l 16.50647,4.50502 4.53668,20.05778 c 2.49517,11.03179 4.53394,20.24513 4.5306,20.47411 -0.006,0.4289 -28.39329,0.37456 -67.55172,-0.12931 z"
         id="path1614" />
      <path
         style="opacity:1;fill:#cccccc;stroke:none;stroke-width:0.38864;stroke-linejoin:round"
         d="m -161.67272,-244.89832 c -21.82778,-3.00111 -40.31125,-5.55689 -41.07447,-5.67951 -0.76321,-0.12262 15.48708,-0.26039 36.11175,-0.30615 l 37.49938,-0.0832 5.41962,5.83107 5.41966,5.83108 -1.84457,-0.0684 c -1.01452,-0.0376 -19.70363,-2.52382 -41.53137,-5.52492 z"
         id="path1630" />
    </g>
    <g
       id="g1667"
       transform="translate(19.329582,-198.9301)">
      <path
         style="fill:none;stroke:none;stroke-width:0.264583px;stroke-linecap:butt;stroke-linejoin:miter;stroke-opacity:1"
         d="m -269.37095,-222.82237 12.37602,-26.40216 27.22723,18.97656 -11.55095,28.87738 z"
         id="path1652" />
      <path
         style="fill:none;stroke:none;stroke-width:0.264583px;stroke-linecap:butt;stroke-linejoin:miter;stroke-opacity:1"
         d="m -269.37095,-222.82237 39.60325,-7.4256 v 0 l -9.90081,-22.27684 -17.32642,3.30028 v 0"
         id="path1654" />
      <path
         style="opacity:1;fill:#4d4d4d;stroke:none;stroke-width:2.18286;stroke-linejoin:round"
         d="m 252.31077,944.37483 c 11.16125,-23.58265 21.32897,-43.93704 22.59496,-45.23198 1.26598,-1.29495 22.98651,12.02219 48.26784,29.59363 36.28517,25.21951 44.78688,32.43537 40.36718,34.26181 -5.9985,2.47888 -120.31108,24.25408 -127.32587,24.25408 -2.73705,0 2.86268,-14.91702 16.09589,-42.87754 z"
         id="path1656"
         transform="matrix(0.26458333,0,0,0.26458333,-329.6009,-485.19392)" />
      <path
         style="opacity:1;fill:#b3b3b3;stroke:none;stroke-width:2.18286;stroke-linejoin:round"
         d="m 283.5773,1031.2722 c -26.94309,-20.5183 -47.89527,-37.90868 -46.5604,-38.64539 4.74105,-2.61656 131.8199,-25.14345 133.32859,-23.63476 0.84409,0.8441 -7.31126,23.59626 -18.12301,50.56035 l -19.65774,49.0256 z"
         id="path1658"
         transform="matrix(0.26458333,0,0,0.26458333,-329.6009,-485.19392)" />
      <path
         style="opacity:1;fill:#999999;stroke:none;stroke-width:2.18286;stroke-linejoin:round"
         d="m 325.70162,924.52945 c -22.57275,-15.65032 -41.04136,-29.51913 -41.04136,-30.81957 0,-1.90502 43.2342,-10.24825 52.11931,-10.05786 2.58989,0.0555 32.82907,66.46692 31.06684,68.22914 -0.60688,0.60689 -19.57204,-11.70138 -42.14479,-27.35171 z"
         id="path1660"
         transform="matrix(0.26458333,0,0,0.26458333,-329.6009,-485.19392)" />
    </g>
  </g>
</svg>
