<?xml version="1.0" encoding="iso-8859-1"?>
<!-- Generator: Adobe Illustrator 16.0.0, SVG Export Plug-In . SVG Version: 6.00 Build 0)  -->
<!DOCTYPE svg PUBLIC "-//W3C//DTD SVG 1.1//EN" "http://www.w3.org/Graphics/SVG/1.1/DTD/svg11.dtd">
<svg version="1.1" id="Capa_1" xmlns="http://www.w3.org/2000/svg" xmlns:xlink="http://www.w3.org/1999/xlink" x="0px" y="0px"
	 width="575.417px" height="575.417px" viewBox="0 0 575.417 575.417" style="enable-background:new 0 0 575.417 575.417;"
	 xml:space="preserve">
<g>
	<g>
		<path d="M403.934,417.283c-0.519-1.073-0.065-1.538,1.016-1.032c1.57,0.734,3.02,1.407,4.455,2.077
			c1.081,0.506,1.542,0.04,1.028-1.037c-5.908-12.415-11.718-24.635-17.507-36.801c-0.515-1.077-1.127-1.225-1.375-0.327
			c-0.249,0.897-0.657,1.485-0.923,1.322c-0.191-0.118-0.354-0.241-0.387-0.388c-5.831-26.169-11.689-52.326-17.406-78.52
			c-6.193-28.376-16.156-54.867-33.843-78.523c-14.027-18.756-30.711-30.352-54.786-30.318c-7.577,0.012-15.292-1.457-22.705-3.239
			c-10.126-2.44-16.092-8.973-18.703-19.544c-6.271-25.369,0.71-45.324,22.33-60.131c16.745-11.465,29.938-26.124,39.592-44.019
			c0.567-1.049,1.334-0.996,1.73,0.126c4.382,12.366,8.694,24.545,13.003,36.716c0.399,1.126,0.991,1.926,1.325,1.787
			c0.335-0.139,0.437-1.199,0.221-2.374c-2.097-11.416-4.721-22.783-5.826-34.293c-0.906-9.453-0.396-19.2,0.775-28.658
			c3.113-25.112-21.191-46.446-45.173-38.372c-8.67,2.921-17.181,7.687-24.317,13.415c-8.564,6.875-17.642,11.021-28.278,12.991
			c-15.076,2.799-30.033,6.25-45.027,9.47c-2.836,0.607-5.651,1.33-8.462,2.496c-1.102,0.457-1,0.894,0.192,0.89
			c38.47-0.143,76.998-5.732,115.848,0.669c1.175,0.196,2.505,1.257,2.835,2.403c1.828,6.296,0.429,12.705-3.615,18.475
			c-1.424,2.027-2.003,4.035-1.946,5.903c0.033,1.191,0.257,2.501,0.155,2.962c-0.062,0.278-0.123,0.56-0.184,0.837
			c-0.074,0.326-0.126,0.652-0.163,0.975c-0.062,0.543-0.649,1.755-1.424,2.66c-7.083,8.283-16.169,13.31-24.345,19.417
			c-19.89,14.852-31.359,34.529-33.26,59.556c-0.636,8.36-2.167,16.663-2.624,25.031c-0.02,0.396-0.037,0.775-0.049,1.154
			c-0.021,0.637-0.078,1.457-0.114,1.828c-0.021,0.22-0.037,0.448-0.045,0.677c-0.763,19.192-1.526,38.381-2.289,57.573
			c-0.008,0.18-0.008,0.359-0.008,0.534c0,0.298-0.184,1.485-0.424,2.652c-0.347,1.665-0.694,3.342-1.049,5.039
			c-0.245,1.167,0.522,1.999,1.706,1.853c0.645-0.078,1.379-0.168,2.208-0.27c1.183-0.147,1.889,0.669,1.571,1.819
			c-1.057,3.855-2.081,7.597-3.174,11.596c-0.314,1.15,0.396,2.016,1.587,1.938c1.208-0.081,2.477-0.167,3.982-0.269
			c1.191-0.082,1.995,0.808,1.799,1.982c-0.91,5.442-1.799,10.755-2.73,16.312c-0.196,1.176,0.519,1.718,1.596,1.208
			c1.044-0.494,2.146-1.016,3.431-1.624c1.077-0.51,1.648-0.004,1.277,1.13c-0.775,2.371-1.489,4.537-2.252,6.867
			c-0.372,1.134,0.265,1.819,1.42,1.529c0.971-0.24,1.95-0.489,3.072-0.767c1.159-0.29,1.966,0.437,1.807,1.615
			c-0.433,3.216-0.849,6.3-1.289,9.572c-0.159,1.183,0.596,1.746,1.685,1.261c1.224-0.547,2.529-1.126,4.202-1.873
			c1.089-0.485,1.881,0.082,1.767,1.269c-0.318,3.338-0.608,6.333-0.914,9.523c-0.114,1.187,0.702,1.819,1.824,1.411
			c1.065-0.388,2.215-0.808,3.443-1.252c1.122-0.408,2.575,0.061,3.248,1.044c15.263,22.383,30.078,44.982,31.428,73.771
			c0.58,12.396,4.913,24.794,4.3,37.03c-1.334,26.724-1.999,53.677-9.363,79.752c-2.146,7.601-3.835,15.353-6.377,22.815
			c-1.236,3.635-3.505,6.919-6.03,11.285c-0.596,1.032-1.571,1.057-2.236,0.069c-4.676-6.948-9.584-10.918-17.059-4.79
			c-0.922,0.755-0.645,1.387,0.546,1.33c0.845-0.045,1.636-0.082,2.444-0.127c1.191-0.061,2.056,0.857,2.129,2.049
			c0.253,4.116,2.444,6.136,6.81,5.45c1.179-0.184,1.681,0.384,1.032,1.388c-3.276,5.071-7.919,6.585-14.48,4.586
			c-6.173-1.877-11.995-4.981-18.225-6.557c-3.337-0.845-8.282,1.697-11.661,4.215c-0.955,0.714-0.743,1.105,0.433,0.918
			c5.01-0.796,6.618,0.963,7.091,2.55c0.343,1.143-0.13,2.591-0.42,3.153c-0.29,0.56,0.441,1.017,1.632,1.017h30.869
			c1.191,0,1.465,0.673,0.563,1.456c-8.201,7.087-16.806,8.789-26.169,7.851c-7.887-0.792-10.963-0.054-13.905,4.989
			c-0.6,1.032-0.18,1.363,0.996,1.146c5.161-0.95,13.835,3.093,19.894,2.023c7.34-1.293,14.035-5.911,21.216-8.502
			c12.481-4.501,24.504-4.488,34.888,5.316c4.309,4.067,9.073,6.735,16.621,5.842c1.184-0.139,1.392-0.954,0.498-1.742
			c-1.95-1.726-3.357-3.088-4.998-4.056c-6.079-3.578-12.868-6.188-18.327-10.51c-7.177-5.68-10.367-13.949-8.674-23.154
			c5.067-27.499,8.393-55.406,21.607-80.869c2.962-5.704,3.064-13.313,3.064-20.045c0.004-14.321-1.359-28.65-1.253-42.967
			c0.028-4.198,1.477-8.389,2.774-12.578c0.351-1.139,0.815-2.473,1.008-2.995c0.188-0.522,0.706-0.886,1.208-0.796
			c0.501,0.09,1.191,1.086,1.509,2.236c0.955,3.431,1.787,6.911,3.19,10.146c3.306,7.609,6.382,15.455,10.812,22.399
			c5.871,9.209,8.658,18.209,5.695,29.209c-1.195,4.435,0.433,9.768,1.335,14.586c0.828,4.418,3.479,8.69,3.483,13.031
			c0.009,19.389-0.551,38.776-1.154,58.16c-0.069,2.175-1.064,4.316-2.105,7.165c-0.407,1.122-1.399,1.379-2.264,0.555
			c-2.583-2.456-4.77-4.541-6.875-6.544c-0.865-0.824-1.815-1.351-2.122-1.18c-0.306,0.172-0.159,1.191,0.335,2.276
			c0.865,1.91,1.836,4.056,3.219,7.111c0.494,1.086-0.04,1.702-1.195,1.399c-5.316-1.379-9.657-2.084-13.374-4.002
			c-7.671-3.958-9.396-4.182-13.745,3.174c-0.608,1.028-0.171,1.53,0.942,1.11c0.653-0.249,1.257-0.478,1.836-0.698
			c1.114-0.424,1.942-0.448,1.844-0.057s0.726,1.057,1.839,1.489c4.586,1.778,9.271,3.599,14.745,5.724
			c1.114,0.433,1.122,1.15,0.021,1.607c-6.956,2.885-13.297,5.513-20.689,8.576c-1.102,0.457-1.098,1.188,0.037,1.555
			c7.956,2.579,13.027,0.927,18.552-2.904c11.518-7.985,31.302-3.162,39.67,8.511c2.256,3.149,4.965,5.977,7.568,8.874
			c0.795,0.889,1.941,1.415,2.574,1.162c0.632-0.253,0.849-1.375,0.587-2.541c-0.424-1.897-0.804-3.868-1.95-4.554
			c-19.416-11.551-24.472-29.425-23.231-50.449c1.017-17.205,1.53-34.439,2.501-51.648c0.629-11.102-0.575-21.481-4.39-32.318
			c-3.26-9.257-2.403-20.171-2.293-30.339c0.073-6.707,1.611-13.398,2.782-20.791c0.188-1.18,1.053-1.502,1.979-0.747
			c1.04,0.845,1.954,1.587,2.651,2.489c9.511,12.325,19.331,24.438,28.267,37.173c7.356,10.485,11.277,22.387,13.432,35.255
			c2.064,12.342,6.218,24.329,10.718,36.227c0.42,1.113,0.897,1.061,1.045-0.122c2.904-23.22,2.64-46.178-2.273-69.789
			c-0.244-1.167,0.343-1.559,1.322-0.877c8.715,6.067,16.59,11.546,24.402,16.985c0.979,0.681,2.15,0.914,2.615,0.521
			c0.466-0.392,0.421-1.578-0.098-2.655C408.797,427.356,406.5,422.6,403.934,417.283z"/>
	</g>
</g>
<g>
</g>
<g>
</g>
<g>
</g>
<g>
</g>
<g>
</g>
<g>
</g>
<g>
</g>
<g>
</g>
<g>
</g>
<g>
</g>
<g>
</g>
<g>
</g>
<g>
</g>
<g>
</g>
<g>
</g>
</svg>
