<?xml version="1.0" encoding="iso-8859-1"?>
<!-- Generator: Adobe Illustrator 16.0.0, SVG Export Plug-In . SVG Version: 6.00 Build 0)  -->
<!DOCTYPE svg PUBLIC "-//W3C//DTD SVG 1.1//EN" "http://www.w3.org/Graphics/SVG/1.1/DTD/svg11.dtd">
<svg version="1.1" id="Capa_1" xmlns="http://www.w3.org/2000/svg" xmlns:xlink="http://www.w3.org/1999/xlink" x="0px" y="0px"
	 width="580.561px" height="580.562px" viewBox="0 0 580.561 580.562" style="enable-background:new 0 0 580.561 580.562;"
	 xml:space="preserve">
<g>
	<g>
		<path d="M513.053,53.784L512,53.788l-1.191-0.008c-4.101,0-7.364,1.779-10.518,3.493c-0.759,0.412-1.514,0.824-2.285,1.208
			c-3.859,1.946-8.278,1.232-9.282-1.473c-1.203-3.231-1.705-6.772-2.007-9.498c-0.225-2.02-0.172-4.084-0.114-6.267
			c0.024-0.983,0.053-1.971,0.053-2.954c0-1.008-0.734-1.865-1.729-2.016l-1.245-0.196c-0.938-0.139-1.836,0.367-2.194,1.236
			c-0.127,0.302-0.27,0.6-0.417,0.902c-0.383,0.795-0.819,1.705-1.008,2.75c-0.856,4.892-0.322,9.947,1.686,15.912
			c0.693,2.064,0.897,4.031,0.551,5.39c-3.089,12.208-9.702,17.417-22.117,17.417l-1.11-0.012c-0.596-0.012-1.942-0.901-2.607-1.876
			c-1.313-1.938-0.824-4.276-0.253-6.985l0.168-0.812c0.579-2.828,0.84-5.708,1.098-8.495c0.109-1.196,0.216-2.391,0.351-3.583
			c0.114-1.024-0.555-1.975-1.559-2.211l-1.661-0.4c-0.905-0.24-1.831,0.204-2.268,1.016c-0.204,0.384-0.449,0.759-0.694,1.13
			c-0.665,1.028-1.42,2.195-1.652,3.611c-0.726,4.422-1.281,8.874-1.836,13.321l-0.453,3.623c-0.224,1.779-0.396,3.566-0.566,5.353
			c-0.367,3.831-0.714,7.45-1.579,10.971c-1.489,6.075-5.284,10.926-10.972,14.027c-2.089,1.126-5.079,0.62-5.442-2.322
			c-0.273-2.236-0.135-4.57,0.399-6.577c0.854-3.228,1.91-6.483,2.93-9.633c0.649-2.003,1.298-4.006,1.901-6.018
			c0.294-0.963,0.294-1.909,0.298-2.746c0-0.298,0-0.6,0.021-0.897c0.065-1.032-0.648-1.951-1.665-2.134l-0.963-0.179
			c-1.003-0.184-1.975,0.383-2.301,1.342l-0.396,1.13c-0.307,0.881-0.612,1.763-0.897,2.648c-0.384,1.191-0.665,2.415-0.942,3.643
			c-0.702,3.072-1.311,5.729-3.521,7.809c-1.66,1.563-2.692,1.889-3.272,1.894c-0.767,0-1.604-0.649-2.484-1.926
			c-1.6-2.313-2.934-4.774-4.35-7.381c-0.86-1.587-1.726-3.174-2.647-4.725c-0.727-1.224-1.604-2.354-2.48-3.484
			c-0.363-0.469-0.727-0.935-1.077-1.412c-0.592-0.8-1.665-1.065-2.546-0.616l-1.257,0.616c-0.877,0.432-1.322,1.432-1.061,2.37
			c0.102,0.372,0.184,0.747,0.269,1.122c0.213,0.951,0.453,2.036,0.972,3.06c0.62,1.232,1.37,2.436,2.121,3.635
			c1.31,2.101,2.546,4.08,2.962,6.1c1.024,5.006,3.852,7.601,7.438,10.474c2.17,1.746,3.569,3.468,3.933,4.855
			c1.44,5.492-3.484,14.533-9.09,16.688c-2.791,1.081-4.77,0.424-6.055-2.22c-0.702-1.444-1.225-2.995-1.771-4.639
			c-0.27-0.812-0.543-1.62-0.837-2.419l-2.762-7.475c-0.348-0.942-1.339-1.497-2.322-1.289l-1.231,0.253
			c-0.992,0.204-1.686,1.105-1.628,2.113c0.024,0.461,0.028,0.931,0.036,1.396c0.013,1.195,0.028,2.432,0.326,3.696
			c0.556,2.375,1.322,4.688,2.065,6.928l0.306,0.93c0.909,2.762,0.604,5.622,0.277,8.649c-0.176,1.645-0.359,3.342-0.347,5.076
			c0.016,2.619-0.837,4.818-2.546,6.54c-2.75,2.766-7.116,3.753-10.286,3.753l-0.759-0.016c-1.815-0.085-4.696-2.056-7.344-5.01
			c-3.101-3.464-4.859-7.083-4.766-8.584c0.127-2.008,0.645-4.035,1.195-6.182c0.196-0.767,0.396-1.53,0.571-2.293
			c0.339-1.44,0.637-2.88,0.935-4.329c1.163-5.598,2.26-10.885,5.369-15.671c2.081-3.199,2.375-8.332-1.656-12.579
			c-0.515-0.547-1.281-0.75-1.999-0.571c-0.723,0.192-1.281,0.759-1.461,1.481l-0.367,1.404c-0.236,0.885-0.42,1.587-0.526,2.297
			c-0.723,4.847-1.502,8.817-4.357,12.007c-1.701,1.901-3.04,2.452-4.762,1.967c-1.064-0.298-2.309-1.008-2.468-3.864
			c-0.103-1.853-0.339-3.713-0.584-5.578c-0.697-5.435-1.358-10.567,1.497-15.381c0.457-0.767,0.481-1.542,0.502-2.113
			c0.005-0.139,0-0.278,0.024-0.412c0.229-1.065,0.441-2.13,0.653-3.199c1.366-6.879,2.66-13.37,8.046-18.205
			c2.027-1.815,3.9-2.607,6.467-2.722c2.644-0.118,5.271-0.493,7.817-0.86c1.085-0.155,2.17-0.311,3.26-0.445
			c0.926-0.114,1.656-0.845,1.771-1.775l0.102-0.808c0.123-0.967-0.456-1.885-1.379-2.191l-1.42-0.485
			c-1.121-0.388-2.239-0.775-3.378-1.093c-3.627-1.016-3.957-2.656-3.305-5.149c1.742-6.63,5.81-11.135,11.767-13.032
			c2.982-0.951,6.148-1.828,9.074-1.828c3.704,0,6.553,1.403,8.968,4.418c0.347,0.437,0.759,0.824,1.175,1.208
			c0.236,0.225,0.481,0.437,0.689,0.682c2.306,2.676,5.811,2.934,8.05,0.636c0.331-0.334,0.719-0.942,0.702-1.938
			c-0.024-1.416-0.991-3.9-2.248-5.104c-2.175-2.089-3.203-3.631-3.146-4.716c0.057-1.057,1.171-2.411,3.402-4.146l0.51-0.383
			c0.661-0.49,1.408-1.044,2.032-1.792c0.942-1.126,1.815-2.309,2.692-3.496l1.053-1.42c0.392-0.519,0.51-1.195,0.322-1.816
			c-0.188-0.624-0.665-1.118-1.276-1.334c-1.616-0.571-2.853-0.58-4.129-0.045c-5.717,2.411-11.42,4.839-17.12,7.279
			c-1.163,0.502-2.224,0.767-3.06,0.767c-0.792,0.024-2.555,0.008-2.636-4.068c-0.041-2.064,0.371-4.182,0.808-6.426
			c0.216-1.106,0.433-2.22,0.596-3.325c0.135-0.906,0.236-1.808,0.343-2.713l0.146-1.245c0.118-0.967-0.465-1.885-1.396-2.187
			l-1.55-0.506c-0.931-0.311-1.946,0.098-2.416,0.955c-0.322,0.583-0.673,1.155-1.02,1.73c-0.849,1.399-1.73,2.839-2.293,4.488
			c-0.592,1.73-1.036,3.525-1.478,5.325c-0.669,2.729-1.297,5.308-2.464,7.56c-1.66,3.219-3.745,6.353-5.765,9.384
			c-1.787,2.685-3.644,5.467-5.247,8.368c-2.705,4.884-7.055,7.871-11.657,11.024l-2.076,1.436
			c-0.122,0.085-1.225,0.294-2.203,0.139c-4.659-0.734-7.287-3.533-8.516-9.074c-0.285-1.286-0.787-2.436-1.37-3.766
			c-0.277-0.632-0.58-1.322-0.894-2.105c-0.302-0.767-1.032-1.272-1.856-1.285c-0.796,0.013-1.571,0.461-1.901,1.212
			c-4.003,8.984-0.665,14.961,3.129,19.617c6.61,8.115,8.238,15.112,5.28,22.685c-1.281,3.284-2.975,3.798-5.101,1.514
			c-1.729-1.861-3.207-3.95-4.77-6.161c-0.755-1.069-1.514-2.134-2.293-3.174c-0.298-0.4-0.575-0.82-0.849-1.252
			c-1.224-1.881-2.9-4.459-6.642-4.937c-0.56-0.082-1.118,0.089-1.555,0.444c-0.433,0.359-0.702,0.877-0.743,1.44
			c-0.383,5.582,2.583,9.359,4.966,12.395c3.382,4.309,4.855,7.454,2.958,11.726c-0.294,0.665-1.105,2.211-2.248,2.211
			c-0.44,0-0.971-0.216-1.538-0.62c-0.633-0.453-1.22-1.154-1.84-1.897c-0.462-0.555-0.931-1.106-1.437-1.612
			c-0.812-0.804-1.677-1.562-2.611-2.387l-1.272-1.126c-0.526-0.469-1.261-0.637-1.942-0.437c-0.682,0.204-1.204,0.743-1.392,1.428
			c-1.143,4.231,0.298,7.564,4.28,9.906l1.15,0.673c4.79,2.807,9.743,5.704,14.301,8.927c4.442,3.142,6.943,6.667,7.862,11.098
			c0.836,4.022,0.738,7.993-0.298,12.484c-0.621,2.685-2.085,5.884-5.545,5.884c-1.236,0-2.62-0.4-4.117-1.184
			c-2.407-1.265-4.745-2.656-7.079-4.051c-1.33-0.788-2.655-1.583-3.998-2.35c-0.824-0.473-1.677-0.894-2.533-1.31L330,124.894
			c-0.62-0.318-1.37-0.286-1.975,0.078c-0.6,0.363-0.975,1.008-0.987,1.714c-0.028,1.726,0.352,3.104,1.225,4.476
			c3.818,5.994,9.693,8.988,14.39,10.926c4.827,1.995,9.76,3.664,14.366,5.177c1.913,0.625,3.296,2.081,3.794,3.986
			c0.453,1.746,0.078,3.599-0.959,4.725c-1.489,1.628-3.68,1.489-6.446,1.004c-0.604-0.102-1.207-0.208-1.803-0.286
			c-2.04-0.265-4.076-0.559-6.112-0.849c-5.23-0.755-10.637-1.526-16.324-1.885c-1.967,0-3.709,1.257-5.247,2.362
			c-0.596,0.424-1.187,0.861-1.774,1.188c-0.51,0.286-0.873,0.779-1,1.354c-0.122,0.58,0.009,1.175,0.359,1.645l1.021,1.383
			c0.962,1.314,1.925,2.627,2.966,3.88c0.808,0.976,2.068,1.286,2.827,1.473c1.656,0.4,3.317,0.779,4.978,1.163
			c2.302,0.531,4.599,1.065,6.888,1.636c1.293,0.327,2.207,0.906,2.57,1.628c0.31,0.608,0.265,1.412-0.131,2.371
			c-0.991,2.415-2.623,4.68-4.361,6.071c-8.074,6.459-13.113,13.007-15.871,20.596c-3.093,8.531-5.594,17.393-8.091,26.259
			c-3.252,11.55-5.292,22.554-6.234,33.64c-0.995,11.713-2.713,23.284-4.26,33.064c-1.105,6.96-3.978,11.546-8.784,14.019
			c-7.348,3.778-13.072,5.357-19.062,5.092c-3.75-0.143-7.503-0.094-11.253-0.049l-4.578,0.045c-11.46,0-22.766-2.293-32.464-4.443
			c-6.643-1.469-12.097-2.521-17.173-3.305c-2.921-0.449-5.867-0.759-8.817-1.064c-2.819-0.294-5.639-0.588-8.433-1.013
			c-9.36-1.436-18.768-2.003-28.165-1.722c-12.729,0.396-24.716,4.056-36.646,11.191c-6.185,3.692-13.003,7.038-20.922,6.361
			c-3.741-0.331-6.071-1.783-7.425-4.741c-2.677-5.867-5.202-11.416-4.439-17.862c0.392-3.297,0.306-6.622,0.22-9.841
			c-0.041-1.636-0.086-3.28-0.065-4.908c0.057-4.394-1.648-7.785-4.937-9.8c-3.578-2.199-7.36-4.092-11.236-5.998
			c-1.665-0.82-2.986-1.204-4.166-1.204c-3.961,0-5.018,4.186-5.422,5.761c-0.298,1.187-0.645,2.362-0.987,3.537
			c-0.653,2.228-1.326,4.529-1.706,6.907c-0.191,1.191-0.42,2.391-0.645,3.599c-0.816,4.341-1.661,8.829-1.016,13.199
			c1.457,9.837,4.732,19.792,9.73,29.575c0.657,1.281,2.073,3.599,4.182,4.664c3.484,1.746,5.663,4.19,6.667,7.471
			c1.461,4.777,2.579,9.367,0.225,12.958c-5.394,8.233-5.985,17.319-6.552,26.107l-0.074,1.122
			c-0.306,4.635-0.106,9.319,0.082,13.855c0.086,2.081,0.171,4.162,0.212,6.234c0.012,0.665,0,1.334-0.012,2.004
			c-0.024,1.313-0.045,2.627,0.085,3.925c0.445,4.479,0.947,8.951,1.444,13.427l0.82,7.422c0.208,1.938,0.404,3.872,0.596,5.81
			c0.383,3.848,0.767,7.699,1.273,11.534c0.347,2.648,0.967,5.528,1.946,9.066c2.942,10.571,1.424,18.041-4.912,24.227
			c-3.619,3.529-5.23,7.487-4.794,11.763c0.636,6.206,1.358,12.396,2.125,18.584c1.22,9.805,2.448,19.617,3.794,29.401
			c0.245,1.782,0.453,3.578,0.661,5.373c0.608,5.279,1.24,10.742,2.909,16.075c1.91,6.1,3.419,10.918,0.029,16.161
			c-0.881,1.358-1.004,2.913-0.326,4.161c0.73,1.338,2.231,2.109,4.19,2.109l2.081-0.008l7.532,0.028
			c1.979,0,3.958-0.017,5.94-0.077c0.045-0.005,4.554-0.184,5.545-2.812c0.702-1.868,0.021-4.39-0.967-6.062
			c-0.906-1.53-1.942-2.986-2.979-4.447c-1.428-2.008-2.774-3.904-3.753-5.957c-6.712-14.068-10.029-30.176-10.147-49.246
			c-0.008-1.248-0.139-2.492-0.273-3.745c-0.114-1.057-0.233-2.113-0.249-3.17l-0.049-1.534c-0.074-1.897-0.139-3.685,0.318-5.174
			c1.962-6.344,5.618-11.991,10.865-16.793c3.713-3.398,7.919-7.246,10.359-12.831c2.207-5.043,5.161-9.956,7.76-14.17
			c0.216-0.352,1.012-0.833,1.697-1.013c0.27,0.478,0.604,1.286,0.735,1.967c0.155,0.816,0,1.853-0.164,2.95l-0.171,1.244
			c-0.146,1.257-0.355,2.514-0.567,3.774c-0.453,2.729-0.926,5.553-0.771,8.413c0.444,8.266-1.763,15.879-4.101,23.937l-0.812,2.808
			c-1.342,4.704-0.506,9.759,0.114,12.35c1.098,4.599,2.432,9.196,3.725,13.648c1.501,5.173,3.056,10.518,4.219,15.826l0.314,1.448
			c1.685,7.748,3.423,15.765,8.527,22.636c1.481,1.995,1.555,3.864,0.245,6.255c-0.539,0.979-0.942,2.035-1.407,3.28
			c-0.208,0.555-0.433,1.15-0.694,1.799c-0.253,0.629-0.18,1.343,0.2,1.905c0.379,0.563,1.016,0.902,1.693,0.902h19.898
			c0.983,0,1.824-0.702,2.007-1.665c0.799-4.292-1.567-6.817-3.297-8.666c-0.53-0.562-1.061-1.118-1.485-1.729
			c-12.436-17.924-18.475-37.491-17.948-58.173c0.053-1.983,0.396-3.595,1-4.647l2.272-3.998
			c3.778-6.667,7.687-13.554,12.032-19.943c8.666-12.726,17.561-26.454,22.779-42.048c3.603-10.768,8.156-18.438,14.325-24.138
			c4.203-3.884,9.592-5.663,16.087-5.39c3.178,0.118,6.402,0.89,9.707,1.734c4.488,1.146,8.959,2.35,13.431,3.558
			c7.332,1.971,14.913,4.015,22.452,5.753c8.633,1.986,18.874,4.165,29.384,5.242c6.883,0.714,10.539,4.729,10.563,11.616
			c0.013,3.252-0.412,6.63-0.824,9.894l-0.367,2.999c-0.89,7.735,1.171,14.912,3.162,21.849l1.379,4.859
			c2.411,8.515,4.692,16.553,3.692,25.165c-0.159,1.351,0.069,2.709,0.314,3.855c1.293,6.104,2.607,12.203,3.982,18.283l0.832,3.781
			c0.886,4.068,1.799,8.274,3.056,12.347c1.334,4.333,1.326,8.613-0.036,13.101c-0.739,2.444-1.216,5.227,2.509,7.353
			c0.959,0.547,1.571,1.212,1.636,1.783c0.074,0.615-0.51,1.265-0.86,1.595c-3.696,3.447-3.529,7.482-3.378,11.049
			c0.024,0.628,0.053,1.265,0.057,1.889c0.008,1.967,2.432,4.484,4.39,4.562c1.841,0.073,3.685,0.099,5.529,0.099
			c1.905,0,3.814-0.029,5.72-0.058l4.047-0.049c1.388-0.009,2.448-0.425,3.146-1.244c0.979-1.135,0.905-2.591,0.763-3.587
			c-1.049-7.307-3.99-13.9-6.834-20.277c-1.44-3.224-2.93-6.561-4.121-9.898c-0.987-2.774-1.946-5.748-2.244-8.719
			c-0.407-4.039-0.521-8.217-0.636-12.252l-0.123-4.015c-0.11-3.195-0.188-6.397-0.171-9.597c0.012-3.023,0.053-6.051,0.094-9.082
			c0.069-5.152,0.135-10.306,0.073-15.459c-0.037-3.06-0.384-6.087-0.718-9.021c-0.526-4.623-1.024-8.988-0.429-13.501l0.098-0.742
			c0.686-5.251,1.339-10.217,4.623-14.17c0.938-1.131,1.967-1.787,2.121-1.845c0.225,0.082,0.8,0.49,2.109,2.366
			c0.241,0.343,0.339,1.245,0.421,1.963l0.061,0.502c0.172,1.432,0.286,2.872,0.4,4.32c0.232,2.971,0.469,6.039,1.244,9.013
			c1.864,7.148,1.975,14.288,2.093,21.845l0.058,3.329c0.077,3.606,0.808,7.169,1.514,10.616c0.265,1.302,0.534,2.607,0.767,3.909
			c0.229,1.289,0.511,2.578,0.796,3.859c0.335,1.521,0.673,3.048,0.91,4.586c0.33,2.121,0.575,4.26,0.824,6.397
			c0.493,4.264,0.999,8.67,2.17,12.904c1.73,6.264,2.366,11.168,0.208,16.251c-0.763,1.787-1.13,3.974-1.098,6.504
			c0.021,1.604,0.968,3.524,2.298,4.676c2.256,1.954,2.436,2.745,1.289,5.622c-0.849,2.138-1.232,4.386-1.665,6.928
			c-0.407,2.375,0.277,3.934,0.923,4.822c0.665,0.927,1.995,2.102,4.545,2.477c1.424,0.217,3.443,0.47,5.316,0.27
			c1.489-0.146,2.97-0.388,4.451-0.624c1.852-0.298,3.603-0.579,5.365-0.689c0.8-0.054,3.231-0.204,4.304-2.126
			c0.694-1.248,0.563-2.791-0.396-4.582c-0.718-1.351-1.525-2.66-2.334-3.966c-1.077-1.742-2.093-3.382-2.889-5.12
			c-0.399-0.873-0.812-1.742-1.228-2.619c-1.726-3.636-3.513-7.394-4.104-11.114c-0.755-4.737-0.877-9.727-0.996-14.549
			c-0.061-2.481-0.122-4.97-0.265-7.438c-0.196-3.468-0.445-6.932-0.689-10.399c-0.421-5.871-0.849-11.942-1.021-17.903
			c-0.485-16.646-0.648-30.249-0.514-42.819c0.094-8.874,0.938-17.54,1.75-24.844c0.828-7.441,5.06-13.357,13.313-18.621
			c9.017-5.744,14.974-14.243,18.213-25.985c0.396-1.432,0.298-2.938,0.151-3.953c-1.469-9.91-0.522-17.165,3.063-23.529
			c0.824-1.457,1.232-2.823,1.22-4.048c-0.012-1.358,0-2.721,0.021-4.088c0.049-3.958,0.099-8.046-0.607-12.036
			c-2.154-12.244-4.545-25.288-7.911-38.262c-2.105-8.1-4.614-16.218-7.042-24.064c-1.975-6.389-4.02-12.999-5.822-19.535
			c-1.424-5.169-1.845-10.771-2.146-16.067c-0.2-3.464,3.146-6.373,6.394-6.919c5.189-0.869,10.596-0.322,16.512,1.681
			c9.237,3.129,18.548,6.732,26.765,9.915c0.991,0.388,1.894,0.575,2.758,0.575c2.971,0,4.595-2.281,5.129-3.027
			c0.339-0.477,0.674-0.979,1.004-1.485c0.869-1.326,1.693-2.583,2.697-3.289c5.63-3.974,4.193-8.029,1.807-11.816l-2.321-3.655
			c-2.13-3.337-4.333-6.785-6.312-10.253c-4.668-8.152-8.119-17.205-10.551-27.667c-0.616-2.656-0.326-4.916,0.815-6.36
			c1.229-1.546,3.203-1.873,4.64-1.873c0.6,0,1.231,0.057,1.893,0.164c0.384,0.065,0.768,0.146,1.155,0.232
			c0.905,0.2,1.934,0.424,3.003,0.424c0.04,0,0.411-0.008,0.452-0.012l0.894-0.057c2.758-0.163,5.61-0.331,8.356-1.122
			c2.187-0.632,3.647-2.097,3.912-3.917c0.266-1.828-0.73-3.668-2.664-4.912c-2.102-1.354-4.811-2.305-7.634-2.688
			c-2.533-0.335-5.092-0.522-7.646-0.71c-2.95-0.216-6.002-0.437-8.915-0.91c-2.607-0.424-4.378-2.326-4.978-4.027
			c-0.249-0.702-0.522-2.028,0.396-3.052c4.509-5.014,9.775-7.728,15.655-8.062c1.774-0.098,3.55-0.18,5.316-0.18
			c5.463,0,9.592,0.767,13.382,2.473c0.719,0.318,1.562,0.2,2.162-0.306c0.601-0.514,0.854-1.326,0.646-2.089
			c-0.392-1.444-0.968-2.665-1.804-3.839c-0.522-0.738-1.077-1.444-1.628-2.154c-0.747-0.959-1.497-1.917-2.142-2.941
			c-1.314-2.073-1.686-4.178-1.053-5.937c0.587-1.616,1.986-2.828,4.06-3.501c4.382-1.428,9.404-2.439,14.92-3.007
			c2.579-0.261,5.965-0.245,9.396-0.159c1.44,0.037,2.881,0.069,4.312,0.069l0.967-0.004c1.869-0.021,5.345-0.057,6.487-3.521
			c0.172-0.526,0.127-1.102-0.131-1.587c-0.253-0.489-0.697-0.856-1.228-1.012c-1.815-0.534-3.623-1.044-5.414-1.55
			c-4.202-1.188-8.173-2.301-12.102-3.701c-1.179-0.424-1.909-0.971-2.171-1.632c-0.383-0.967,0.131-2.326,0.629-3.301
			c2.86-5.565,7.694-9.237,12.811-13.121l0.412-0.314c7.287-5.532,14.533-11.351,21.539-16.977c4.035-3.24,8.07-6.479,12.13-9.682
			l1.032-0.816c5.793-4.586,11.265-8.915,18.331-10.453c0.808-0.175,1.358-0.632,1.889-1.081c0.213-0.175,0.466-0.388,0.788-0.62
			c0.714-0.522,1.012-1.444,0.738-2.285C514.718,54.351,513.935,53.784,513.053,53.784z"/>
	</g>
</g>
<g>
</g>
<g>
</g>
<g>
</g>
<g>
</g>
<g>
</g>
<g>
</g>
<g>
</g>
<g>
</g>
<g>
</g>
<g>
</g>
<g>
</g>
<g>
</g>
<g>
</g>
<g>
</g>
<g>
</g>
</svg>
