<?xml version="1.0" encoding="iso-8859-1"?>
<!-- Generator: Adobe Illustrator 16.0.0, SVG Export Plug-In . SVG Version: 6.00 Build 0)  -->
<!DOCTYPE svg PUBLIC "-//W3C//DTD SVG 1.1//EN" "http://www.w3.org/Graphics/SVG/1.1/DTD/svg11.dtd">
<svg version="1.1" id="Capa_1" xmlns="http://www.w3.org/2000/svg" xmlns:xlink="http://www.w3.org/1999/xlink" x="0px" y="0px"
	 width="551.275px" height="551.275px" viewBox="0 0 551.275 551.275" style="enable-background:new 0 0 551.275 551.275;"
	 xml:space="preserve">
<g>
	<g>
		<path d="M26.526,478.828c2.367,2.778,4.802,5.496,7.401,8.033c2.835,2.774,6.279,4.99,9.653,7.124
			c2.146,1.358,4.651,2.158,7.03,3.125c3.276,1.339,6.581,2.611,9.89,3.876c0.412,0.159,0.914,0.074,1.371,0.135
			c3.072,0.412,6.148,1.22,9.208,1.159c1.261-0.024,2.521-0.082,3.786-0.163c10.347,1.211,20.898,0.392,30.865-2.804
			c4.786-1.534,7.821-6.348,6.447-11.351c-1.293-4.695-6.561-7.98-11.351-6.446c-1.934,0.62-3.896,1.176-5.884,1.596
			c-0.134,0.028-0.269,0.053-0.404,0.081c-5.092,0.045-10.18,0.062-15.259-0.167c-2.99-0.135-5.932-1.481-8.886-2.313
			c-1.611-0.457-3.17-1.126-4.802-1.473c-4.023-0.861-7.238-3.199-10.702-5.234c-5.814-3.419-9.898-8.54-14.19-13.411
			c-2.093-2.375-3.158-5.667-4.619-8.576c-1.347-2.685-2.766-5.353-3.835-8.147c-0.812-2.122-1.142-4.427-1.648-6.659
			c-0.849-3.749-1.681-7.503-2.485-11.265c-0.143-0.669-0.167-1.371-0.171-2.061c-0.041-5.536-0.265-11.081-0.029-16.605
			c0.167-3.896,0.763-7.805,1.542-11.632c0.591-2.897,1.53-5.79,2.771-8.475c1.346-2.917,3.395-5.504,4.834-8.384
			c2.828-5.647,7.299-9.927,11.754-14.142c2.599-2.456,5.908-4.157,8.898-6.193c2.542-1.726,5.006-3.587,7.658-5.12
			c2.154-1.245,4.562-2.053,6.818-3.126c2.423-1.154,4.778-2.443,7.205-3.578c1.506-0.706,3.101-1.224,4.651-1.84
			c2.199-0.873,4.361-1.84,6.597-2.603c1.926-0.661,3.958-1.017,5.892-1.653c2.061-0.681,4.068-1.542,6.096-2.325
			c0.273-0.106,0.542-0.221,0.82-0.31c2.75-0.886,5.476-1.849,8.254-2.628c2.35-0.657,4.794-0.987,7.132-1.681
			c1.163-0.343,2.297-0.779,3.427-1.229c26.194-5.63,51.727-13.819,76.451-24.19c1.905,1.285,3.896,2.411,5.924,3.546
			c3.06,1.718,6.295,2.803,9.478,4.141c1.958,0.824,3.978,1.359,5.985,1.906c1.914,0.746,3.864,1.403,5.838,1.95
			c1.399,0.387,2.812,0.591,4.215,0.636c6.316,1.049,12.709,0.951,19.119,0.869c2.37-0.032,3.423,0.906,4.533,3.113
			c1.322,2.636,1.191,5.182,0.865,7.69c-0.388,2.975-1.514,5.859-2.383,8.764c-0.412,1.388-1.028,2.71-1.436,4.097
			c-0.298,1.024,0.151,2.722-1.546,2.493c-0.967-0.131-2.125-1.105-2.627-2.016c-1.656-3.003-3.333-6.01-5.969-8.209
			c-2.648-2.207-9.119-3.256-12.799-1.057c-2.084,1.248-2.946,2.872-3.562,4.904c-0.445,1.473-1.399,3.125-1.073,4.435
			c0.89,3.606,1.493,7.438,5.679,9.339c1.579,0.719,3.072,1.38,4.615,1.069c2.183-0.437,3.766,0.808,5.275,1.714
			c0.71,0.424,0.775,2.509,0.526,3.713c-0.139,0.686-1.489,1.566-2.322,1.595c-3.762,0.131-7.572-0.396-11.289,0.028
			c-6.186,0.706-10.869,4.235-9.413,11.318c0.559,2.722,1.497,6.234,4.378,7.319c3.007,1.135,5.977,3.211,9.926,1.036
			c2.33-1.28,4.59-2.269,6.41-4.304c0.665-0.739,2.15-0.743,3.48-1.155c1.093,2.396,0.824,2.677-1.465,3.786
			c-4.957,2.399-9.922,5.104-12.603,10.103c-1.012,1.889-0.738,4.892-0.102,7.119c0.563,1.971,2.354,3.64,3.753,5.312
			c2.04,2.44,7.157,2.628,9.918,1.428c3.199-1.391,5.092-3.966,7.304-6.271c0.934-0.976,1.436-2.436,1.913-3.754
			c0.637-1.75,1.061-3.578,1.538-5.242c1.334,0.343,2.269,0.701,3.231,0.799c0.433,0.045,0.808,0.147,1.126,0.294
			c-0.27,3.121-0.249,6.263,0.134,9.352c0.094,0.747,0.208,1.514,0.347,2.289c0.025,0.171,0.045,0.343,0.065,0.514
			c0.017,0.135,0.062,0.27,0.114,0.4c0.135,0.632,0.29,1.265,0.469,1.889c0.204,1.31,0.689,2.436,1.338,3.464
			c0.873,1.693,2.048,3.175,3.639,4.219c0.302,0.314,0.604,0.633,0.898,0.955c0.245-0.065,0.485-0.094,0.718-0.106
			c0.404,0.163,0.824,0.306,1.269,0.416c0.596,0.151,1.187,0.245,1.767,0.29c1.073,0.351,2.228,0.6,3.668,0.11
			c3.864-1.31,6.683-3.681,8.209-6.512c1.645-3.052,3.289-6.81,0.979-11.021c-1.506-2.75-3.362-4.716-5.704-6.487
			c-1.963-1.48-2.199-4.096-0.596-6.042c0.204-0.245,0.383-0.515,0.555-0.788c0.955-0.489,1.746-1.346,2.163-2.599
			c0.489-0.257,1.053-0.412,1.464-0.318c3.068,0.682,6.06,1.722,9.14,2.358c1.926,0.396,3.958,0.261,5.937,0.437
			c3.105,0.273,5.83-0.673,7.924-2.889c1.027-1.085,1.917-2.603,2.179-4.052c0.392-2.162,0.313-4.442,0.195-6.662
			c-0.24-4.439-2.9-7.006-6.973-8.805c-2.652-1.175-5.157-1.203-7.731-0.983c-1.648,0.143-3.231,1.15-4.822,1.819
			c-0.775,0.327-1.502,0.755-2.199,1.114c-1.812-3.558-2.546-7.111-4.44-10.314c-1.003-1.693-1.146-4.663,0.751-6.964
			c1.788-2.175,2.983-4.827,4.607-7.152c1.587-2.272,3.484-4.325,5.055-6.605c1.24-1.804,2.199-3.799,3.28-5.713
			c1.229-2.17,2.754-4.238,3.582-6.556c0.67-1.869,0.576-4.035,0.657-6.075c0.062-1.607,0.318-3.424-0.298-4.79
			c-1.317-2.926-0.979-6.279-3.354-9.042c-1.991-2.317-3.893-4.732-6.345-6.45c-3.382-2.37-6.205-5.496-10.229-7.062
			c-3.835-1.497-7.466-3.541-11.143-5.435c-2.24-1.15-4.394-2.464-6.585-3.709c-0.065-0.036-0.135-0.077-0.208-0.094
			c-2.023-0.543-4.047-1.081-6.748-1.799c0.84-1.767,1.313-3.623,2.432-4.921c2.101-2.432,4.002-5.275,7.229-6.381
			c3.941-1.351,7.85-3.692,12.195-1.184c0.253,0.147,0.596,0.131,0.897,0.184c3.129,0.515,6.292,0.865,9.368,1.596
			c2.09,0.493,4.048,1.521,6.067,2.305c0.212,0.082,0.433,0.147,0.653,0.192c2.859,0.534,5.838,0.714,8.551,1.656
			c6.659,2.321,13.456,1.036,20.192,1.22c3.745,0.103,7.263-1.073,10.669-2.595c2.351-1.049,4.803-1.881,7.104-3.027
			c1.016-0.506,1.729-1.583,2.64-2.334c0.89-0.738,1.763-1.505,2.644-2.26c1.367-0.661,2.726-1.367,4.076-2.13
			c0.522-0.298,1.045-0.604,1.562-0.914c-1.105,7.226-2.366,14.431-3.77,21.607c-0.351,1.791-0.714,3.582-1.081,5.369
			c-0.262,0.604-0.526,1.212-0.775,1.82c-0.682,1.664-1.045,3.459-1.652,5.161c-0.682,1.901-1.506,3.754-2.22,5.646
			c-0.232,0.62-0.31,1.294-0.478,1.938c-0.354,1.354-0.755,2.696-1.077,4.06c-0.122,0.51-0.318,1.188-0.098,1.57
			c1.363,2.347,2.529,4.917,4.361,6.843c1.51,1.587,3.815,2.46,5.83,3.521c2.636,1.388,5.301,2.738,8.03,3.925
			c1.66,0.723,3.517,0.983,5.189,1.677c2.962,1.229,5.867,2.6,8.76,3.986c0.371,0.176,0.734,0.775,0.763,1.2
			c0.217,3.275,1.938,5.744,4.256,8.099c-1.354,1.342-2.738,2.631-4.031,4.011c-2.444,2.61-3.243,5.757-3.187,9.298
			c0.049,2.926,0.425,5.557,3.203,7.177c0.616,0.359,1.313,0.755,1.995,0.787c2.064,0.106,4.141,0.062,6.214,0.054
			c3.366-0.017,5.002-2.701,6.646-4.88c1.048-1.392,1.061-3.595,1.407-5.463c0.098-0.53-0.311-1.143-0.42-1.73
			c-0.114-0.6-0.388-1.33-0.168-1.803c0.123-0.262,0.266-0.481,0.421-0.67c0.24-0.077,0.477-0.163,0.71-0.253
			c0.73,1.559,2.166,2.347,3.794,2.493c0.013,0.738-0.028,1.489,0.045,2.224c0.347,3.484,1.351,6.74,3.676,9.453
			c1.392,1.62,4.305,2.199,6.92,2c2.183,0.33,4.427-0.168,6.116-1.841c1.15-1.138,1.848-2.517,2.162-3.974
			c0.232-0.502,0.355-1.09,0.38-1.641c0.069-1.599,0.024-3.206,0.024-4.708c1.995,0.433,3.777,1.085,5.581,1.163
			c4.623,0.195,5.357,0.27,8.499-5.084c1.143-1.946,1.212-3.696,1.053-5.54c-0.069-0.82-0.457-1.771-1.024-2.729
			c-0.013-0.943-0.163-1.894-0.474-2.828c-1.008-3.019-4.047-3.717-6.348-2.84c-2.363-0.546-4.823-0.081-7.353-0.763
			c0.62-2.097,1.15-4.088,1.84-6.026c0.106-0.298,0.931-0.444,1.437-0.481c1.224-0.085,2.46-0.094,3.688-0.085
			c4.104,0.028,7.095-2.098,9.763-4.933c2.265-2.403,3.02-5.187,2.771-8.446c-0.167-2.15-3.9-6.479-5.822-7.479
			c-2.46-1.281-4.892-1.216-7.43-1.277c-4.378-0.105-7.874,3.289-8.935,7.075c-0.678,2.415-3.529,3.391-5.484,1.905
			c-0.669-0.51-1.587-0.697-2.64-1.139c-0.122-1.778-0.081-3.504,0.73-5.602c1.22-3.153,1.751-6.817,1.542-10.2
			c-0.167-2.705-1.705-5.798-4.446-6.846c-2.154-0.824-5.067-0.886-7.23-0.114c-2.272,0.808-5.092,1.313-6.512,3.863
			c-0.645,1.163-2.027,2.228-2.052,3.362c-0.09,4.12-1.277,8.396,1.073,12.321c0.064,0.106-0.013,0.298-0.029,0.506
			c-1.856,1.44-2.807-0.567-3.847-1.281c-4.248-2.913-3.664-7.475-2.697-11.432c0.942-3.852,3.219-7.369,4.855-11.058
			c1.13-2.541,2.117-5.148,3.264-7.687c0.689-1.53,1.681-2.93,2.325-4.479c0.698-1.673,1.041-3.492,1.734-5.17
			c0.633-1.538,1.473-3.003,2.31-4.451c0.95-1.636,1.962-3.235,3.019-4.806c1.086-1.616,2.191-3.228,3.403-4.749
			c2.558-3.211,5.128-6.418,7.821-9.519c2.469-2.849,5.088-5.574,7.675-8.319c0.62-0.657,1.647-1.057,2.007-1.804
			c1.028-2.162,3.211-2.812,4.974-2.954c1.771-0.143,3.709,0.947,5.104,2.562c2.521,2.913,5.112,5.781,7.838,8.507
			c2.371,2.37,5.378,3.635,8.454,5.035c3.704,1.688,7.731,0.118,11.208,2.129c0.518,0.298,1.57-0.412,2.398-0.555
			c1.106-0.191,2.236-0.261,3.35-0.42c3.709-0.522,7.499-0.755,11.106-1.689c3.312-0.856,6.413-2.509,9.629-3.762
			c2.685-1.049,5.45-1.913,8.082-3.076c1.987-0.877,3.811-2.126,5.732-3.166c2.306-1.253,4.651-2.436,6.956-3.692
			c1.677-0.918,3.366-1.828,4.962-2.881c2.611-1.726,5.218-3.472,7.698-5.377c5.043-3.868,10.233-7.52,15.076-11.689
			c3.337-2.872,6.544-5.834,9.727-8.866c3.908-3.725,7.63-7.552,10.832-11.938c2.257-3.093,4.084-6.3,5.647-9.801
			c2.19-4.92,1.044-9.894,0.836-14.798c-0.122-2.896-1.269-5.937-2.644-8.552c-1.686-3.207-3.57-6.356-7.389-7.919
			c-2.849-1.163-5.271-3.342-7.989-4.876c-1.436-0.808-3.125-1.15-4.659-1.795c-0.551-0.232-1.098-0.485-1.64-0.738
			c-0.515-0.253-1.032-0.498-1.551-0.734c-0.551-0.262-1.102-0.519-1.656-0.763c-1.036-0.453-2.081-0.91-3.142-1.298
			c-0.6-0.249-1.2-0.494-1.796-0.742c-3.692-1.526-7.475-2.84-11.342-3.827c-8.364-2.139-17.018-3.289-25.68-3.399
			c-0.926-0.208-1.856-0.387-2.782-0.525c-1.583-0.438-3.224-0.661-4.925-0.665c-0.347,0.049-0.698,0.094-1.049,0.143
			c-4.794-0.151-9.575,0.253-14.32,0.53c-3.354,0.195-6.912,0.522-10.311,1.139c-2.717,0.493-5.324,1.566-7.984,2.378
			c-1.616,0.49-3.207,1.114-4.859,1.42c-4.945,0.914-9.078,3.709-13.284,6.088c-2.967,1.681-5.149,4.732-7.712,7.14
			c-1.827,1.718-2.525,3.749-3.011,6.267c-0.583,3.027-2.599,5.749-3.599,8.731c-1.049,3.129-3.354,4.985-5.63,7.075
			c-1.718,1.574-3.782,1.256-5.043,0.595c-3.158-1.664-6.287-3.573-7.797-7.278c-0.771-1.893-2.358-3.443-3.48-5.214
			c-0.686-1.081-1.139-2.313-1.779-3.428c-1.945-3.378-3.867-6.776-5.932-10.086c-1.682-2.696-3.501-5.312-5.341-7.906
			c-3.007-4.239-4.606-8.883-3.999-14.104c0.11-0.947,0.865-1.82,1.326-2.726c0.608,0.354,1.289,0.628,1.815,1.081
			c1.677,1.448,3.297,2.958,4.938,4.447c1.636,1.48,3.46,2.533,5.74,2.554c1.538,0.013,3.084,0.122,4.61,0.004
			c3.456-0.265,5.757-2.374,7.801-4.961c2.089-2.647,1.84-5.826,1.11-8.515c-0.601-2.208-2.677-4.179-4.468-5.863
			c-2.729-2.57-6.238-3.125-9.891-2.718c-0.579,0.065-1.126,0.462-1.705,0.511c-1.113,0.094-2.252,0.159-3.357,0.028
			c-0.792-0.094-1.538-0.534-2.456-0.877c-0.506-1.995-1.045-4.121-1.742-6.871c3.325-0.453,6.095-1.109,8.874-1.15
			c4.08-0.058,7.038-2.008,9.596-4.61c0.645-0.42,1.253-0.922,1.808-1.518c3.153-3.407,4.043-8.344,1.701-12.501
			c-2.317-4.113-7.409-7.062-12.179-5.406c-1.195,0.416-2.289,0.967-3.256,1.64c-1.726,0.951-3.99,1.261-5.341,3.04
			c-0.82,1.085-1.75,2.228-2.109,3.496c-0.938,3.276-1.86,3.941-5.476,3.285c-0.587-3.003,0.764-5.717,3.489-6.761
			c2.325-0.894,3.39-2.853,4.851-4.68c1.755-2.195,0.89-4.713,1.877-6.965c0.562-1.285-0.828-3.505-1.518-5.23
			c-0.38-0.946-1.049-1.819-1.722-2.607c-3.276-3.818-7.728-3.243-11.796-2.432c-1.86,0.371-3.619,2.497-4.896,4.223
			c-1.86,2.51-2.979,5.476-2.795,8.72c0.041,0.742,0.543,1.448,0.755,2.19c0.18,0.645,0.433,1.347,0.33,1.975
			c-0.294,1.836-0.763,3.644-1.089,5.476c-2.04,1.53-4.228,2.46-6.202,1.579c-1.04-0.972-1.962-2.158-2.333-2.938
			c-1.767-3.692-0.649-7.654-1.465-11.322c-0.771-3.48-2.379-6.716-5.618-9.127c-2.33-1.738-5.011-2.228-7.401-3.541
			c-0.429-0.237-1.094-0.258-1.583-0.127c-4.247,1.134-8.054,2.595-10.4,6.969c-1.823,3.398-1.452,6.793-0.832,9.955
			c0.616,3.134,2.971,5.867,5.704,7.793c0.514,0.363,1.077,0.661,1.652,0.935c1.53,1.375,3.198,2.627,4.847,3.831
			c0.339,0.249,0.71,0.416,1.098,0.526c0.118,0.273,0.204,0.551,0.236,0.819c0.258,2.114-0.02,4.183-0.881,6.402
			c-0.065,0.171-0.135,0.326-0.208,0.481c-0.461,0.546-0.849,1.142-1.154,1.771c-0.498,0.514-1.073,0.885-1.767,1.175
			c-5.117-1.693-10.784-1.343-15.758,0.759c-3.749,0.596-6.602,2.836-8.666,6.137c-0.832,1.33-0.465,3.41-0.64,5.148
			c-0.526,5.182,2.048,9.339,6.018,11.596c3.02,1.718,6.834,2.975,11.114,1.085c2.782-1.228,5.21-2.55,7.4-4.524
			c0.784-0.706,1.607-1.371,2.109-1.791c2.742,3.153,5.133,5.847,7.446,8.604c0.38,0.453,0.608,1.179,0.608,1.779
			c-0.005,3.382-0.024,6.769-0.209,10.146c-0.053,1.004-0.815,1.95-0.987,2.966c-0.469,2.75,0.653,4.966,1.894,7.454
			c1.261,2.534,3.578,4.374,5.084,6.712c-0.069,0.82,0.098,1.701,0.596,2.604c0.163,0.293,0.302,0.6,0.416,0.909
			c-0.212,1.081-0.686,2.085-1.437,2.819c-0.885,0.865-1.95,1.444-3.08,1.73c-1.257-0.262-2.51-0.539-3.762-0.804
			c-0.51-0.11-1.021-0.258-1.534-0.303c-0.285-0.024-0.575-0.049-0.861-0.073c-0.596-0.171-1.179-0.204-1.726-0.126
			c-5.051-0.331-10.155-0.416-15.022-1.538c-6.65-1.538-13.231-0.845-19.829-0.882c-4.978-0.028-9.991,0.641-14.933,1.399
			c-3.77,0.58-7.577,1.429-11.118,2.795c-4.504,1.742-8.768,4.113-13.117,6.242c-4.582,2.244-8.499,5.443-12.159,8.915
			c-2.37,2.244-4.443,4.814-6.564,7.308c-2.211,2.595-4.439,5.193-6.442,7.947c-1.33,1.828-2.195,3.982-3.411,5.896
			c-1.428,2.24-3.06,4.35-4.517,6.573c-1.269,1.934-2.375,3.974-3.627,5.92c-1.13,1.751-2.423,3.395-3.533,5.157
			c-1.208,1.918-2.199,3.974-3.443,5.867c-1.449,2.203-3.02,4.337-4.647,6.414c-0.861,1.093-1.893,2.076-2.962,2.982
			c-2.265,1.922-4.076,1.302-4.704-1.6c-0.567-2.619-0.914-5.296-1.583-7.887c-0.661-2.562-1.616-5.051-2.416-7.576
			c-0.139-0.433-0.171-0.906-0.212-1.363c-0.342-4.145-1.905-7.866-3.88-11.465c-0.702-1.276-1.065-2.729-1.661-4.067
			c-0.946-2.126-1.914-4.239-2.95-6.32c-0.857-1.713-1.738-3.427-2.771-5.043c-1.358-2.125-2.868-4.148-4.316-6.214
			c-1.799-2.565-3.448-5.259-5.443-7.666c-1.807-2.183-3.913-4.137-6.022-6.047c-2.518-2.284-4.986-4.716-7.838-6.52
			c-2.378-1.505-5.267-2.22-7.948-3.239c-1.236-0.47-2.55-1.257-3.77-1.159c-5.471,0.445-10.184,2.158-13.211,7.397
			c-1.914,3.312-4.733,6.096-7.058,9.18c-1.261,1.673-2.362,3.468-3.493,5.235c-1.2,1.872-2.354,3.777-3.529,5.667l-0.624-0.065
			c0-0.624-0.216-1.354,0.033-1.856c1.848-3.688,1.464-7.181,0.028-10.996c-0.75-1.99-2.15-3.104-3.341-4.504
			c-1.424-1.673-6.899-1.86-9.086-1.109c-2.052,0.705-3.847,1.562-5.035,3.357c-0.849,1.285-1.799,2.647-2.113,4.101
			c-0.4,1.844-0.208,3.818-0.27,5.736c-0.085,2.672,1.053,4.802,2.55,6.973c1.199,1.738,1.701,3.953,2.509,5.953
			c-3.407,1.591-4.402,0.767-5.055-2.551c-1.037-5.271-2.538-10.354-7.72-13.492c-4.031-2.439-10.069-1.62-12.946,2.023
			c-2.579,3.265-3.309,6.961-2.529,10.779c0.546,2.677,2.113,5.182,4.631,6.65c1.265,0.739,2.823,0.951,4.182,1.547
			c1.126,0.493,2.301,1.061,3.158,1.896c0.347,0.339,0.188,1.702-0.216,2.224c-2.513,3.228-7.336,2.383-9.196-1.379
			c-0.535-1.081-1.657-1.946-2.672-2.696c-2.729-2.02-5.945-1.547-9.062-1.592c-2.586-0.036-4.594,1.032-6.373,2.819
			c-1.542,1.547-2.656,3.235-2.652,5.504c0,0.384,0.017,0.779-0.053,1.15c-1.032,5.435,2.623,8.267,6.23,11.058
			c0.518,0.403,1.501,0.154,2.244,0.33c0.914,0.216,1.791,0.583,2.697,0.841c0.49,0.139,1.041,0.347,1.501,0.244
			c1.648-0.362,3.264-0.86,4.9-1.276c2.04-0.522,4.084-1.021,6.418-1.6c0.338,0.139,0.677,0.281,1.012,0.42
			c0.012,2.375,0.078,4.187-0.037,5.974c-0.073,1.167-3.289,3.644-4.635,3.692c-5.565,0.199-9.886,3.003-12.991,7.213
			c-2.717,3.688-2.823,8.597-1.306,12.566c1.175,3.061,3.778,6.283,8.013,6.569c0.485,0.032,0.951,0.358,1.428,0.542
			c0.481,0.184,1.02,0.608,1.437,0.507c4.688-1.135,9.07-2.967,11.983-7.014c0.971-1.351,1.167-3.26,1.738-4.904
			c0.474-1.363,1.33-2.396,2.293-3.342c1.224-0.448,2.215-1.403,2.713-2.603c1.358-1.485,2.75-1.339,4.284-0.878
			c0.587,0.176,1.146,0.461,1.799,0.809c0.465,1.574,0.931,3.146,1.392,4.72c-0.024,3.027-0.041,6.06-0.094,9.087
			c-0.09,5.034,1.966,9.069,5.781,12.228c0.51,0.42,1.444,0.33,2.183,0.469c0.232,0.045,0.469,0.09,0.702,0.131
			c5.834,2.036,13.093-0.196,16.618-5.268c0.204-0.277,0.4-0.566,0.579-0.869c1.457-2.452,2.709-5.435,1.53-8.49
			c-0.334-2.885-1.498-5.654-3.583-7.76c-0.849-1.191-1.946-2.158-3.427-2.812c-0.951-0.416-2.281-1.416-2.293-2.166
			c-0.016-1.073,0.763-2.501,1.653-3.183c3.3-2.518,6.805-4.773,10.204-7.169c1.665-1.175,3.211-2.533,4.924-3.631
			c0.942-0.604,2.101-0.881,3.639-1.465c0.082,0.008,0.167,0.021,0.249,0.028c0.396,1.225,0.902,2.587,1.24,3.99
			c0.196,0.804,0.033,1.689,0.126,2.53c0.49,4.349,0.833,8.723,1.579,13.027c0.657,3.773,1.595,7.527,2.75,11.183
			c0.693,2.204,1.542,4.37,2.456,6.504c1.404,6.365,3.399,12.611,5.945,18.584c-0.171,0.217-0.347,0.425-0.522,0.621
			c-2.101,2.374-4.411,4.626-6.903,6.58c-1.763,1.384-3.999,2.146-5.977,3.272c-0.963,0.551-1.906,1.143-2.848,1.734l-25.663,11.987
			c-2.48,0.963-4.957,1.93-7.376,3.035c-2.689,1.229-5.251,2.733-7.883,4.093l-1.346,0.628c-0.216,0.032-0.429,0.073-0.645,0.106
			c-1.869,0.293-3.717,1.175-5.398,2.366c-0.869,0.33-1.73,0.677-2.566,1.073c-1.665,0.783-3.223,1.782-4.814,2.726
			c-8.188,3.822-16.373,7.646-24.562,11.469c-1.118,0.163-2.211,0.555-3.199,1.211C22.234,337.864-3.67,377.771,0.426,420.978
			C2.495,442.892,11.12,463.54,26.526,478.828z"/>
	</g>
</g>
<g>
</g>
<g>
</g>
<g>
</g>
<g>
</g>
<g>
</g>
<g>
</g>
<g>
</g>
<g>
</g>
<g>
</g>
<g>
</g>
<g>
</g>
<g>
</g>
<g>
</g>
<g>
</g>
<g>
</g>
</svg>
