<?xml version="1.0" encoding="iso-8859-1"?>
<!-- Generator: Adobe Illustrator 16.0.0, SVG Export Plug-In . SVG Version: 6.00 Build 0)  -->
<!DOCTYPE svg PUBLIC "-//W3C//DTD SVG 1.1//EN" "http://www.w3.org/Graphics/SVG/1.1/DTD/svg11.dtd">
<svg version="1.1" id="Capa_1" xmlns="http://www.w3.org/2000/svg" xmlns:xlink="http://www.w3.org/1999/xlink" x="0px" y="0px"
	 width="567.4px" height="567.4px" viewBox="0 0 567.4 567.4" style="enable-background:new 0 0 567.4 567.4;" xml:space="preserve"
	>
<g>
	<g>
		<path d="M536.872,129.486c-2.22-2.791-3.974-5.985-5.691-9.135c-1.665-3.052-2.697-6.467-4.545-9.384
			c-3.276-5.177-6.978-10.082-10.457-15.128c-1.469-2.13-2.926-4.268-4.398-6.438c-2.415-3.566-2.265-7.482,0.18-6.622
			c2.448,0.861,3.676,0.396,2.554-0.967c-0.706-0.86-1.489-1.599-2.411-2.06c-1.913-0.963-4.292-1.118-6.495-1.354
			c-5.431-0.58-5.937-0.918-7.03-6.283c-0.408-2-0.677-4.035-0.828-6.067c-0.073-0.996-0.077-1.995-0.065-3.084
			c0.021-1.706-3.472-1.126-7.291,1.975c-2.338,1.901-4.341,3.994-5.907,6.605c-1.751,2.913-3.762,5.684-5.839,8.372
			c-0.498,0.641-1.873,1.204-2.591,0.979c-5.94-1.848-11.913-1.477-17.939-0.718c-5.402,0.681-10.812,1.571-16.234,1.718
			c-6.92,0.188-11.049-3.011-13.533-9.474c-0.159-0.408-0.335-0.808-0.588-1.375c-0.339-0.755-1.677,2.746,0.232,7.181
			c1.909,4.435,0.143,7.679-4.406,5.377s-6.776-4.521-6.132-3.056c0.396,0.897,0.853,1.742,1.395,2.53
			c0.571,0.833,1.225,1.611,1.914,2.391c1.118,1.269-6.512,3.579-13.362-2.432c-6.85-6.01-8.115-11.591-8.241-7.45
			c-0.078,2.489,0.429,4.896,1.48,7.295c3.142,7.156,9.181,10.877,16.279,13.138c1.444,0.461,2.926,0.816,4.517,1.167
			c2.518,0.559,1.469,3.578-3.142,4.933c-4.61,1.354-6.454,2.831-3.966,3.876c2.493,1.044,1.62,4.643-1.954,8.025
			c-2.187,2.068-4.361,4.063-6.658,5.912c-4.525,3.644-9.123,7.173-14.174,9.825c-8.45,4.435-14.521,5.822-11.959,7.234
			c1.547,0.853,3.121,1.652,4.725,2.387c3.827,1.746,4.447,3.603,1.775,7.046c-3.407,4.382-8.169,6.095-13.559,6.32
			c-0.681,0.028-1.366,0.033-2.052,0.024c-1.134-0.008-2.081,0.216-2.109,0.506c-0.032,0.29,3.26,1.216,7.34,2.064
			s6.491,7.177,2.456,12.505c-4.035,5.324-7.511,7.674-4.676,8.854c2.836,1.179,3.044,2.905,0.466,3.855
			c-2.579,0.955-3.396,2.493-1.82,3.436c1.575,0.946-0.318,4.488-4.843,6.952c-2.746,1.493-5.594,2.722-8.511,3.807
			c-18.025,6.704-36.888,9.621-55.859,11.685c-22.64,2.464-45.336,4.447-68.017,6.528c-17.924,1.644-34.725,6.548-48.842,18.05
			c-7.667,6.242-14.97,13.121-21.437,20.58c-5.059,5.83-10.326,8.017-18.001,7.911c-11.24-0.155-22.607,0.481-33.721,2.129
			c-17.875,2.648-32.758,11.139-42.982,26.439c-6.316,9.449-12.249,19.18-17.96,29.009c-4.786,8.237-8.772,16.939-13.545,25.182
			c-5.141,8.874-12.795,13.7-23.46,12.636c-0.163-0.017-0.334,0.032-0.669,0.118c-0.363,0.094,2.754,1.885,7.332,2.436
			c2.774,0.335,5.532,0.241,8.323-0.077c2.77-0.314,5.455-0.849,7.972-1.84c4.219-1.665,7.895-2.514,7.503-0.037
			c-0.241,1.514-0.975,2.86-2.011,3.998c-3.252,3.566-6.618,7.259-10.608,9.866c-2.766,1.807-5.688,3.386-8.609,4.875
			c-4.872,2.48-3.056,5.178,3.925,3.979c6.981-1.204,10.184,3.937,3.929,10.24c-3.729,3.758-8.136,6.888-12.611,9.923
			c-4.521,3.063-9.262,5.605-14.251,7.503c-8.331,3.166-6.479,5.304,4.655,3.578c6.749-1.044,13.191-3.129,19.376-6.165
			c10.114-4.961,18.796-5.822,15.716-0.645c-3.084,5.178,0.951,6.491,10.416,1.845c9.466-4.651,17.152-8.177,15.5-4.541
			c-1.652,3.635,4.692,3.488,12.999-3.366c8.307-6.854,14.476-8.793,11.75-3.338c-2.726,5.455-5.316,9.009-4.549,8.662
			c0.534-0.241,0.963-0.44,1.363-0.682c9.673-5.834,16.503-14.129,20.812-24.492c5.675-13.664,4.773-27.438,0.053-41.09
			c-3.207-9.281-7.25-18.286-10.167-27.649c-4.672-14.962,2.081-27.908,16.789-33.44c10.359-3.896,19.531-0.229,24.419,9.682
			c0.91,1.848,1.003,3.468,0.387,5.524c-3.908,13.088-4.794,26.001,2.84,38.29c1.224,1.971,2.101,4.166,3.036,6.304
			c4.802,10.938,4.321,21.012-4.945,29.617c-0.714,0.661-1.277,1.473-1.971,2.154c-8.38,8.273-16.736,16.572-25.182,24.781
			c-3.594,3.493-4.19,7.193-2.337,11.901c2.697,6.867,5.288,13.84,7.083,20.979c4.945,19.646,5.72,39.254-2.236,58.467
			c-0.082,0.195-0.102,0.416-0.13,0.734c-0.037,0.412,1.514-0.575,3.472-2.203c1.958-1.628,3.708-2.853,3.904-2.733
			c0.196,0.118-0.11,2.027-0.686,4.259c-0.347,1.351-0.709,2.693-1.118,4.023c-1.085,3.529-2.297,7.014-3.493,10.51
			c-0.938,2.75,0.086,3.97,2.873,4.639c12.966,3.113,26.075,4.64,39.384,3.542c3.644-0.302,7.295-1.229,10.795-2.334
			c4.092-1.298,4.305-2.207,1.518-5.361c-2.313-2.619-4.802-5.12-7.462-7.381c-2.889-2.452-5.818-4.859-8.76-7.254
			c-4.872-3.966-8.233-7.393-7.499-7.666s-0.987-1.771-3.848-3.346c-2.86-1.575-3.056-4.044-2.929-6.463
			c0.073-1.379-0.62-2.726-1.314-4.133c-1.701-3.473-3.635-6.981-4.463-10.698c-1.562-7.005-1.905-14.3-3.672-21.244
			c-2.224-8.744,1.685-14.59,7.646-19.906c0.216-0.196,0.428-0.396,0.645-0.592c13.509-12.061,27.373-23.75,40.433-36.279
			c3.888-3.729,7.731-7.503,11.551-11.302c6.328-6.295,12.803-10.172,14.827-8.968c2.02,1.203,5.487,3.57,6.789,6.161
			c0.775,1.546,1.358,3.198,1.783,4.929c0.898,3.663,1.542,7.445,1.759,11.207c0.677,11.808-2.803,22.444-9.462,32.159
			c-1.224,1.782-2.746,4.071-2.558,5.973c0.257,2.604,0.739,5.186,1.302,7.838c0.914,4.296,3.199,5.822,5.785,5.74
			c1.494-0.049,2.885,0.657,4.272,1.686c2.269,1.681,4.627,3.235,6.858,4.957c5.663,4.361,9.939,9.571,10.42,17.132
			c0.106,1.632,0.612,3.248,1,4.855c1.514,6.259,3.24,12.448,7.054,17.788c0.906,1.27,1.897,2.448,3.187,3.432
			c2.064,1.575,3.839,0.845,3.382-0.648c-0.298-0.976-0.534-1.86-0.608-2.758c-0.098-1.184,0.225-3.179,0.926-3.477
			c1.163-0.498,3.011-0.322,4.158,0.314c1.163,0.645,1.93,2.13,2.692,3.354c3.591,5.765,3.199,12.321,3.55,18.707
			c0.245,4.418,0.139,4.77,4.456,4.83c10.689,0.147,21.407,0.359,32.068-0.277c5.626-0.334,11.261-2.061,16.688-3.79
			c3.826-1.22,4.165-2.86,1.171-5.59c-4.362-3.97-9.05-7.662-13.954-10.942c-2.477-1.656-5.06-3.149-7.694-4.606
			c-4.333-2.398-7.516-5.21-7.1-6.308s-7.034-2.231-14.288-7.308c-2.938-2.056-5.353-5.275-10.616-11.941
			c-3.464-4.391-7.136-8.389-12.526-10.62c-3.545-1.47-6.573-3.999-7.805-7.871c-2.33-7.323-3.843-14.712-0.628-22.231
			c1.069-2.501,1.873-5.116,2.921-7.626c8.078-19.396,16.189-38.78,24.276-58.172c0.188-0.453,0.343-0.923,0.506-1.429
			c0.253-0.795,0.408-1.452,0.343-1.465c-0.061-0.012,0.596-1.105,1.469-2.439s6.561-1.71,12.725-1.021
			c3.713,0.417,7.438,0.779,11.175,1.062c19.895,1.501,39.735,3.843,59.65,4.871c17.486,0.901,35.043,0.53,52.566,0.645
			c10.877,0.069,21.489,1.306,31.791,5.174c9.739,3.659,19.711,6.699,29.511,10.208c4.015,1.437,7.874,3.325,11.746,5.137
			c1.938,0.906,3.068,2.529,2.437,4.758c-1.853,6.523-3.611,13.092-5.835,19.489c-0.755,2.167-2.391,4.737-4.32,5.663
			c-7.679,3.677-15.651,5.509-23.656,0.567c-0.457-0.281-0.942-0.526-1.432-0.759c-0.809-0.384-1.616-0.559-1.791-0.392
			c-0.176,0.167,0.726,2.448,2.015,5.096c1.29,2.648,1.768,4.655,1.062,4.484c-0.519-0.127-0.897-0.217-1.277-0.318
			c-5.924-1.628-8.902-0.865-11.783,4.483c-3.492,6.479-6.418,13.28-9.257,20.082c-0.983,2.354-1.236,5.116-1.351,7.711
			c-0.159,3.652,0.905,4.554,4.32,3.477c8.617-2.718,17.336-5.251,25.671-8.694c3.852-1.592,7.654-3.224,11.522-4.386
			c6.523-1.959,12.812-3.648,13.615-6.247c0.493-1.595,0.987-3.146,1.534-4.676c1.473-4.096,3.528-8.025,4.594-12.216
			c1.122-4.406,2.439-8.682,4.153-12.758c2.876-6.838,7.381-10.886,8.36-9.931c0.591,0.575,1.179,1.154,1.767,1.73
			c0.098,0.094,0.199,0.175,0.306,0.257c0.176,0.13,0.877,0.89,1.481,1.758c0.375,0.539,0.693,1.09,0.93,1.669
			c3.044,7.532,3.651,15.459,3.211,23.505c-0.135,2.44-1.456,3.329-3.651,2.881c-1.392-0.286-2.767-0.624-4.162-0.987
			c-2.284-0.592-4.655,1.313-3.843,4.084c0.485,1.66,1.252,3.252,1.93,4.847c2.362,5.541,2.611,11.008,1.665,17.062
			c-1.897,12.139,0.064,23.986,6.805,34.456c3.855,5.985,5.092,5.279,8.323-0.028c3.767-6.186,6.512-13.008,9.563-19.613
			c0.584-1.261,1.069-2.562,1.53-3.876c0.767-2.175,2.534-3.635,3.962-3.256c1.428,0.38,2.003-2.443,1.276-6.308
			c-0.448-2.398-0.889-4.7-1.358-6.993c-0.518-2.537-0.648-3.88,0.139-4.553c1.991-1.706,4.097-5.157,2.396-10.511
			c-1.008-3.17-2.505-6.107-5.198-8.601c-1.109-1.027-2.02-2.415-2.644-3.807c-1.641-3.655-3.239-7.327-4.574-11.053
			c-2.231-6.218-0.632-14.189-0.6-18.164c0.033-3.974-2.228-7.217-2.248-7.943c-0.012-0.494-0.106-0.95-0.339-1.253
			c-0.216-0.281-0.444-0.551-0.677-0.824c-0.38-0.448-1.004-1.713-1.648-2.676c-0.384-0.571-0.841-1.106-1.371-1.583
			c-0.771-0.694-1.542-1.388-2.313-2.081c-1.276-1.15-2.305-2.403-2.301-2.803c0.004-0.241,0.004-0.481-0.004-0.727
			c-0.041-1.057-0.412-2.559-1.159-3.048c-4.949-3.26-9.743-7.046-15.161-9.253c-9.734-3.971-17.928-10.11-26.071-16.414
			c-4.011-3.105-4.096-3.542-2.023-8.111c5.026-11.073,10.135-22.109,15.442-33.048c1.579-3.26,2.15-6.43,1.29-9.849
			c-1.824-7.258-4.06-14.431-5.517-21.763c-0.894-4.504-1.767-9.499-0.73-13.811c3.533-14.704,4.668-29.588,4.941-44.598
			c0.139-7.691,0.053-15.386,0.122-23.077c0.041-4.843,3.011-7.262,7.319-5.949c1.281,0.392,2.484,1.085,3.651,1.767
			c3.774,2.211,7.487,4.529,11.273,6.72c11.11,6.43,22.224,12.856,33.398,19.172c1.359,0.767,3.399,1.604,4.606,1.118
			c4.08-1.632,7.761-0.873,11.567,0.653c1.134,0.453,2.48,0.461,3.737,0.494c4.182,0.102,4.545-0.229,4.3-4.382
			c-0.13-2.269,0.629-3.513,2.836-4.423c1.244-0.514,2.428-2.093,2.852-3.439c0.502-1.599-0.032-3.497,0.221-5.214
			c0.775-5.292-1.024-8.895-4.884-12.999C553.241,150.609,545.184,139.915,536.872,129.486z"/>
	</g>
</g>
<g>
</g>
<g>
</g>
<g>
</g>
<g>
</g>
<g>
</g>
<g>
</g>
<g>
</g>
<g>
</g>
<g>
</g>
<g>
</g>
<g>
</g>
<g>
</g>
<g>
</g>
<g>
</g>
<g>
</g>
</svg>
