<?xml version="1.0" encoding="iso-8859-1"?>
<!-- Generator: Adobe Illustrator 16.0.0, SVG Export Plug-In . SVG Version: 6.00 Build 0)  -->
<!DOCTYPE svg PUBLIC "-//W3C//DTD SVG 1.1//EN" "http://www.w3.org/Graphics/SVG/1.1/DTD/svg11.dtd">
<svg version="1.1" id="Capa_1" xmlns="http://www.w3.org/2000/svg" xmlns:xlink="http://www.w3.org/1999/xlink" x="0px" y="0px"
	 width="548.604px" height="548.604px" viewBox="0 0 548.604 548.604" style="enable-background:new 0 0 548.604 548.604;"
	 xml:space="preserve">
<g>
	<g>
		<path d="M533.131,0.622c-8.98,6.369-16.703,14.088-23.799,22.473c-6.561,7.752-9.155,17.095-10.999,26.781
			c-0.874,4.59-2.734,5.904-7.761,5.753c-3.374-0.102-5.006-1.942-5.639-5.981c-1.705-10.906-6.81-19.792-16.002-26.075
			c-9.057-6.193-17.939-12.562-25.365-20.751c-0.914-1.008-2.269-1.624-3.316-2.35c-4.256,3.974-3.04,8.972-3.142,13.231
			c-0.232,9.621,2.256,18.801,6.907,27.356c3.758,6.912,7.923,13.815,15.198,17.062c5.324,2.375,6.45,5.565,5.634,10.469
			c-0.236,1.428-0.881,2.787-1.187,4.207c-1.114,5.214-2.501,10.4-3.146,15.675c-0.645,5.268,0.951,10.657-0.779,15.961
			c-0.819,2.518-1.064,5.227-1.534,7.858c-1.269,7.103-4.034,13.525-9.021,18.792c-6.43,6.797-15.088,9.673-23.492,12.962
			c-11.343,4.439-21.959,10.074-31.343,17.997c-7.218,6.095-14.312,12.538-22.289,17.491c-11.478,7.128-23.705,13.044-35.606,19.49
			c-17.246,9.339-31.628,22.024-43.889,37.263c-8.968,11.146-15.54,23.656-21.395,36.593c-5.284,11.673-9.213,23.869-11.126,36.484
			c-1.689,11.146-2.048,22.416-1.171,33.827c0.979,12.75,0.722,25.655,0.143,38.454c-0.526,11.628-3.909,22.795-8.262,33.579
			c-6.561,16.246-15.647,30.93-27.136,44.206c-12.631,14.595-27.421,26.328-44.521,35.239c-14.9,7.765-31.293,9.829-47.495,12.648
			c-10.702,1.864-21.44,3.513-32.138,5.405c-7.324,1.294-14.594,2.901-21.91,4.252c-11.041,2.04-22.089,4.011-33.15,5.94
			c-4.798,0.836-9.657,1.358-14.439,2.272c-6.785,1.293-13.893,1.819-19.809,7.552c2.436,0.498,4.48,1.281,6.516,1.261
			c5.782-0.057,11.559-0.665,17.336-0.641c8.132,0.033,16.263,0.706,24.391,0.637c36.083-0.298,72.179,1.028,108.25-1.293
			c8.825-0.567,17.532-1.196,26.259-2.897c10.061-1.958,19.413-5.581,28.274-10.367c21.069-11.379,37.516-28.136,51.849-46.92
			c9.71-12.726,18.502-26.148,27.573-39.355c1.701-2.48,3.104-1.995,4.635-0.257c1.13,1.281,2.003,2.799,2.913,4.255
			c3.207,5.137,7.748,9.548,8.878,15.818c1.229,6.834,2.66,13.66,3.379,20.555c0.656,6.316,1.403,12.86,0.465,19.054
			c-2.036,13.469-4.904,26.806-3.799,40.547c0.257,3.187,1.354,6.594,4.505,7.394c4.169,1.061,8.67,1.326,12.998,1.154
			c8.267-0.33,16.418-3.239,24.811-0.954c4.333,1.183,8.748,2.085,13.04,3.39c4.921,1.498,10.082,1.465,15.022,3.652
			c3.513,1.554,8.299,0.526,12.473,0.159c2.085-0.184,4.725-0.927,5.969-2.392c2.697-3.17,5.357-5.022,9.548-3.325
			c0.317,0.131,0.738,0.009,1.105,0.021c6.527,0.237,13.056,0.494,19.588,0.702c1.281,0.041,2.566-0.114,4.737-0.221
			c-4.346-8.653-10.535-14.116-18.752-16.699c-10.641-3.342-21.465-5.948-32.689-7.038c-10.808-1.049-21.501-3.293-32.252-4.945
			c-4.031-0.62-7.389-4.834-6.516-8.878c2.064-9.555,5.051-18.756,10.612-26.989c2.436-3.606,4.577-7.475,6.372-11.444
			c5.227-11.555,10.188-23.215,17.654-33.61c1.714-2.387,3.195-2.481,4.468-0.417c3.685,5.985,7.862,11.856,10.339,18.353
			c3.799,9.955,6.847,20.281,9.192,30.678c1.118,4.948,0.244,10.469-0.376,15.65c-0.615,5.178-2.293,10.232-2.949,15.41
			c-0.18,1.412,1.276,3.672,2.623,4.496c2.207,1.354,4.888,2.081,7.458,2.664c7.018,1.6,14.076,3.012,21.131,4.443
			c1.918,0.388,4.002,0.245,5.785,0.931c12.595,4.839,25.749,5.858,39.029,5.679c3.276-0.045,6.789-0.473,9.245-3.472
			c0.547-0.669,2.004-0.938,2.991-0.853c8.413,0.75,16.813,1.623,25.218,2.468c1.024,0.103,2.045,0.282,3.428,0.478
			c-0.236-4.3-2.713-6.434-5.487-8.303c-2.334-1.57-5.296-2.546-7.047-4.586c-6.034-7.046-14.067-8.25-22.521-8.678
			c-4.312-0.217-8.629-0.433-12.934-0.771c-11.856-0.938-23.7-2.081-35.565-2.84c-3.937-0.253-6.087-2.031-7.16-5.545
			c-3.55-11.587-0.8-22.623,4.108-32.958c4.762-10.017,8.246-20.277,10.024-31.159c1.935-11.807,3.831-23.623,5.569-35.459
			c1.049-7.128,2.31-14.296,2.473-21.469c0.176-7.585-0.751-15.202-1.362-22.791c-0.453-5.614-0.845-11.265-1.856-16.789
			c-1.583-8.638-3.819-17.152-5.423-25.786c-0.384-2.056,0.041-4.765,1.146-6.499c3.488-5.455,7.356-10.686,11.384-15.761
			c0.726-0.914,3.472-1.465,4.324-0.853c9.408,6.772,13.647,13.676,8.119,26.242c-1.485,3.378-2.036,6.279,0.114,9.204
			c1.881,2.559,4.149,4.831,6.279,7.201c0.229,0.253,0.686,0.515,0.976,0.461c4.268-0.804,8.571-1.489,12.754-2.627
			c0.975-0.266,1.815-2.016,2.207-3.244c2.525-7.964,2.126-15.602-2.51-22.864c-6.238-9.779-12.346-19.641-18.384-29.547
			c-0.738-1.212-1.379-3.203-0.886-4.305c1.542-3.435,3.611-6.634,5.549-9.886c1.392-2.334,2.317-2.118,3.844,0.249
			c3.108,4.81,6.438,9.531,10.155,13.88c2.786,3.26,6.353,5.847,9.519,8.793c7.156,6.65,7.499,18.188,1.306,25.585
			c-1.804,2.15-3.31,5.59-3.02,8.229c0.555,5.088,2.893,9.89,7.136,13.158c1.126,0.869,3.729,1.253,4.773,0.551
			c4.35-2.934,7.871-6.838,7.838-12.465c-0.062-9.249-0.416-18.502-0.856-27.743c-0.144-3.016-0.176-6.427-1.575-8.915
			c-3.02-5.374-6.72-10.4-10.461-15.325c-3.509-4.623-7.141-9.212-7.769-15.133c-0.682-6.43-0.89-12.921-1.02-19.392
			c-0.103-5.063-0.29-10.245,4.189-14.068c0.946-0.808,1.437-2.232,1.954-3.452c4.093-9.567,6.981-19.474,7.826-29.874
			c0.922-11.355-0.103-22.562-2.982-33.607c-0.266-1.028,0.452-2.31,0.718-3.477c0.367-0.085,0.738-0.171,1.105-0.253
			c4.725,5.822,10.987,5.455,17.328,4.705c5.985-0.71,10.767-7.385,9.494-13.228c-0.49-2.244-1.188-4.451-1.526-6.716
			c-0.689-4.594-1.42-9.205-1.733-13.835c-0.575-8.466-1.375-16.973-1.053-25.423c0.159-4.218,0.448-8.217-0.963-12.219
			c-0.485-1.379-1.424-2.779-1.375-4.142c0.257-7.503-4.035-12.17-9.735-15.863c-2.921-1.893-2.876-3.476-0.596-5.798
			c5.811-5.916,10.441-12.485,12.179-20.881c1.33-6.414,2.759-12.901,5.129-18.972c1.383-3.542,2.028-6.867,1.812-10.482
			C538.211,0.736,535.432-1.01,533.131,0.622z"/>
	</g>
</g>
<g>
</g>
<g>
</g>
<g>
</g>
<g>
</g>
<g>
</g>
<g>
</g>
<g>
</g>
<g>
</g>
<g>
</g>
<g>
</g>
<g>
</g>
<g>
</g>
<g>
</g>
<g>
</g>
<g>
</g>
</svg>
