<?xml version="1.0" encoding="iso-8859-1"?>
<!-- Generator: Adobe Illustrator 16.0.0, SVG Export Plug-In . SVG Version: 6.00 Build 0)  -->
<!DOCTYPE svg PUBLIC "-//W3C//DTD SVG 1.1//EN" "http://www.w3.org/Graphics/SVG/1.1/DTD/svg11.dtd">
<svg version="1.1" id="Capa_1" xmlns="http://www.w3.org/2000/svg" xmlns:xlink="http://www.w3.org/1999/xlink" x="0px" y="0px"
	 width="569.395px" height="569.396px" viewBox="0 0 569.395 569.396" style="enable-background:new 0 0 569.395 569.396;"
	 xml:space="preserve">
<g>
	<g>
		<path d="M408.478,128.091c-12.782-3.19-26.385-4.969-37.915-10.771c-10.771-5.422-20.608-14.198-28.482-23.509
			c-10.783-12.742-17.561-28.417-33.673-37.075c-5.626-3.023-8.894-12.893-10.506-20.233c-1.688-7.678-4.361-10.693-12.068-9.661
			c-4.647,0.624-9.413,0.686-14.112,0.579c-23.285-0.53-29.862-4.121-37.704-24.794c-1.11-2.925-3.676-3.493-5.883-1.273
			c-2.167,2.179-4.312,4.296-6.377,6.418c-2.183,2.244-6.426,4.79-8.866,6.752c-3.721,2.995-5.704,7.821-3.594,13.872
			c0.13,0.379,0.249,0.754,0.363,1.126c0.192,0.624-1.579,2.782-3.762,5.026c-1.012,1.036-1.983,2.101-2.913,3.187
			c-2.036,2.375-5.243,6.295-7.507,8.458c-2.97,2.835-6.03,5.251-9.498,6.152c-11.032,2.868-11.791,8.283-9.539,15.214
			c0.967,2.975-0.326,6.149-3.284,7.165c-2.228,0.767-4.207,1.542-5.794,2.803c-1.926,1.526-3.521,3.464-5.059,5.476
			c-1.901,2.485-0.963,4.937,2.122,5.488c2.48,0.44,4.965,0.865,7.462,1.199c0.689,0.094,1.579-1.509,2.301-1.448
			c1.583,0.139,3.162,0.359,4.737,0.604c2.607,0.404,3.521,2.603,2.032,4.863c-0.947,1.432-1.967,2.75-3.289,3.586
			c-7.948,5.043-16.161,9.666-24.521,14.46c-2.713,1.559-3.313,4.802-1.375,7.258c9.882,12.525,10.277,15.071,3.643,27.915
			c-1.436,2.779-0.175,5.68,2.668,6.985c12.171,5.594,11.962,14.733,5.161,24.852c-1.746,2.595-1.13,5.634,1.624,7.12
			c9.633,5.198,10.494,8.005,10.665,26.051c0.029,3.129,2.583,5.655,5.679,6.104c12.367,1.799,16.5,9.07,9.519,23.599
			c-0.743,1.542,2.966,7.536,4.912,7.69c16.055,1.306,16.091,9.768,10.677,21.453c-0.338,0.727-0.433,1.567-0.449,2.375
			c-0.028,1.343,2.167,3.787,4.953,5.21c5.329,2.725,10.869,5.153,11.808,8.771c0.4,1.534,0.795,3.072,1.191,4.614
			c0.657,2.55-1.318,4.162-4.395,3.595c-2.562-0.474-5.12-0.946-7.683-1.416c-9.017-2.48-18.36-4.292-28.792-6.499
			c-3.06-0.649-5.022,1.289-4.345,4.345c5.994,26.957,14.537,51.743,33.627,74.93c1.987,2.415,4.317,6.765,5.251,9.751
			c0.232,0.742,0.473,1.485,0.722,2.228c0.991,2.966,0.241,6.961-2.113,8.576c-2.354,1.615-3.419,4.99-3.231,8.111
			c0.698,11.607-10.478,20.518-9.796,32.138c0.191,3.256,1.477,7.806-0.139,9.592c-12.579,13.896-1.832,28.838-1.244,42.73
			c0.612,14.468,5.851,29.649,12.485,42.795c21.93,43.469,84.374,60.608,123.261,34.292c2.591-1.754,4.521-3.39,4.479-3.41
			c-0.036-0.024,0.314-0.204,0.764-0.453c0.273-0.151,0.534-0.314,0.779-0.498c1.256-0.942,2.517-1.889,3.777-2.831
			c0.478-0.367,0.955-0.738,1.433-1.105c0.791-0.612,1.733-1.408,2.081-1.804c0.342-0.396,2.312-1.832,3.826-3.774
			c0.857-1.105,1.673-2.362,2.51-3.676c22.415-35.239,8.217-81.828-28.752-93.864c-15.712-5.116-30.686-2.093-42.477,8.434
			c-10.8,9.645-16.435,22.696-12.804,38.258c3.02,12.946,12.547,18.735,23.905,21.204c12.346,2.685,24.219-0.972,31.171-11.727
			c2.938-4.541,2.742-13.129,0.465-18.352c-1.623-3.725-8.996-6.377-13.985-6.712c-2.281-0.15-4.696,1.686-6.7,4.374
			c-1.868,2.51-0.269,5.149,2.849,5.438c1.231,0.114,2.468,0.232,3.704,0.347c3.117,0.29,5.908,1.686,6.238,3.113
			c0.331,1.428-1.771,3.505-4.631,4.77c-3.578,1.587-7.156,3.105-10.673,2.982c-3.488-0.118-9.919-5.834-9.576-8.278
			c0.816-5.826,3.518-13.799,7.952-16.107c5.736-2.986,16.688-4.366,20.42-0.972c6.929,6.3,13.737,16.309,14.383,25.223
			c1.489,20.633-13.632,33.347-35.68,36.333c-34.28,4.643-57.524-22.624-53.098-59.034c2.501-20.575,13.301-36.973,27.564-49.657
			c1.408-1.253,2.729-2.525,3.979-3.814c2.113-2.191,5.067-3.9,6.769-4.101c0.971-0.114,1.979-0.335,3.027-0.674
			c1.485-0.481,2.954-0.979,4.41-1.493c2.428-0.856,6.83-2.239,9.886-2.908c8.014-1.763,15.647-3.24,21.429-7.328
			c2.362-1.669,2.701-6.197,2.745-11.143c0.029-3.129,1.045-8.009,1.73-11.061c0.796-3.546,1.036-7.169,1.036-10.82
			c0-3.13,1.347-7.72,3.031-10.352c8.295-12.945,13.636-27.409,14.762-43.855c1.134-16.528-3.509-33.456-5.565-50.2
			c-0.738-6.014-1.301-12.064-2.395-18.018c-0.62-3.37-2.028-6.618-3.293-9.841c-2.329-5.937-4.521-11.958-7.323-17.67
			c-2.351-4.794-4.545-11.828-8.479-13.252c-9.155-3.317-13.64-7.776-11.6-17.584c1.946-9.348-3.301-11.812-11.171-11.485
			c-9.861,0.412-14.7-3.701-15.255-14.027c-0.062-1.15-0.779-2.554-1.812-3.872c-1.477-1.885-2.399-5.435-2.909-8.425
			c-0.298-1.738-0.914-3.436-1.705-5.21c-0.266-0.596-0.58-1.143-0.927-1.657c-0.587-0.869,0.453-2.061,2.375-2.897
			c1.191-0.518,2.342-1.069,3.423-1.636c9.221-4.823,16.892-4.859,26.695-1.416c16.149,5.68,33.358,8.299,49.662,13.607
			c8.572,2.791,16.658,7.058,23.248,10.4c2.79,1.416,7.033,0.881,9.481-1.069c7.752-6.181,15.39-11.849,21.91-18.597
			C422.077,136.933,419.197,130.764,408.478,128.091z"/>
	</g>
</g>
<g>
</g>
<g>
</g>
<g>
</g>
<g>
</g>
<g>
</g>
<g>
</g>
<g>
</g>
<g>
</g>
<g>
</g>
<g>
</g>
<g>
</g>
<g>
</g>
<g>
</g>
<g>
</g>
<g>
</g>
</svg>
