<?xml version="1.0" encoding="iso-8859-1"?>
<!-- Generator: Adobe Illustrator 16.0.0, SVG Export Plug-In . SVG Version: 6.00 Build 0)  -->
<!DOCTYPE svg PUBLIC "-//W3C//DTD SVG 1.1//EN" "http://www.w3.org/Graphics/SVG/1.1/DTD/svg11.dtd">
<svg version="1.1" id="Capa_1" xmlns="http://www.w3.org/2000/svg" xmlns:xlink="http://www.w3.org/1999/xlink" x="0px" y="0px"
	 width="556.98px" height="556.98px" viewBox="0 0 556.98 556.98" style="enable-background:new 0 0 556.98 556.98;"
	 xml:space="preserve">
<g>
	<g>
		<path d="M7.996,375.067c-3.077,1.804-5.431,4.704-6.557,8.078c-1.461,2.991-1.897,6.483-0.902,10.106
			c2.04,7.417,10.543,12.9,18.168,10.314c0.351-0.118,0.697-0.233,1.048-0.347c4.773,0.648,9.551,1.265,14.333,1.815
			c39.54,4.581,79.454,5.581,119.161,2.982c0.946,0.09,1.901,0.135,2.872,0.118c11.795-0.2,23.586-0.4,35.382-0.6
			c41.73-0.71,83.465-1.416,125.195-2.126c13.358,1.334,26.753,2.33,40.163,2.962c34.66,1.632,69.312,0.853,103.816-2.101
			c1.31,0.122,2.619,0.232,3.933,0.33c10.942,0.8,22.113,0.494,33.053-1.163c3.741,0.049,7.486,0.004,11.211-0.33
			c6.21-0.555,12.66-1.334,18.512-3.627c6.487-2.542,12.48-5.606,17.434-10.645c4.667-4.754,8.042-10.27,10.27-16.524
			c3.647-10.237,1.999-22.705-4.733-31.375c5.08-9.438,6.594-20.71,3.778-31.106c0.759-0.738,1.383-1.595,1.641-2.66
			c0.461-1.889,0.077-3.929-1.371-5.312c-1.746-1.669-4.778-1.771-6.471,0.073c-0.608,0.661-1.008,1.346-1.229,2.142
			c-0.979,0.931-1.542,2.358-1.036,3.647c3.521,8.964,3.223,19.209-0.783,27.866c-4.994-3.876-10.502-6.968-16.781-8.303
			c0.812-1.758,1.387-3.618,1.669-5.528c0.347-2.366,0.437-4.586,0.073-6.952c-0.376-2.469-1.302-4.766-1.975-7.156
			c-0.449-1.6-1.118-3.741-0.331-5.288c0.266-0.521,0.649-1.301,1.032-1.529c0.531-0.318,0.507-0.273,1.106-0.237
			c4.757,0.307,4.729-7.082,0-7.385c-4.66-0.298-8.679,3.741-9.519,8.152c-1.024,5.386,1.701,9.755,2.484,14.912
			c0.53,3.468-0.449,6.981-2.37,9.882c-4.203-0.339-8.413-0.261-12.66,0.191c-12.118,1.29-24.203,3.102-36.288,4.68
			c-12.203,1.596-24.41,3.187-36.614,4.782c-4.414,0.575-8.829,1.154-13.247,1.729c2.786-10.648,1.313-21.199-4.513-31.632
			c-0.886-1.587-2.117-3.035-3.411-4.325c-0.975-0.979-0.999-1.778-0.714-3.056c3.207-14.357-0.135-27.013-10.086-37.886
			c-0.208-0.225-0.428-0.445-0.673-0.628c-1.555-1.171-3.737-2.028-4.509-3.582c-0.775-1.567,0.054-3.852-0.167-5.777
			c-1.224-10.661-5.806-19.641-14.084-26.504c-2.313-1.917-5.206-3.186-7.948-4.521c-1.02-0.498-1.391-1-1.645-2.056
			c-3.047-12.787-10.469-21.995-22.627-27.185c-1.727-0.739-3.656-1.122-5.528-1.363c-1.294-0.167-1.832-0.73-2.375-1.828
			c-5.594-11.313-14.668-18.062-27.062-20.302c-1.555-0.282-3.235-0.392-4.77-0.106c-1.759,0.326-2.632-0.367-3.599-1.645
			c-7.295-9.653-22.371-15.039-33.452-11.84c-0.065,0.021-0.126,0.037-0.188,0.049c-1.444-0.347-2.896-0.682-4.354-0.996
			c-9.706-6.838-20.347-8.902-31.53-4.431c-3.195,1.277-5.402,1.179-8.507,0.139c-10.441-3.505-20.547-2.644-29.511,4.3
			c-1.706,1.318-2.975,1.709-5.133,1.387c-10.771-1.616-20.314,1.146-27.703,9.363c-1.893,2.105-3.505,3.027-6.353,3.333
			c-10.057,1.081-18.168,5.769-22.921,14.941c-1.277,2.464-2.746,3.378-5.157,4.227c-9.041,3.187-15.528,9.225-18.111,18.613
			c-0.751,2.734-1.995,4.092-4.251,5.598c-8.352,5.561-13.179,13.228-12.742,23.652c0.024,0.625-0.433,1.461-0.935,1.885
			c-6.1,5.222-9.229,11.897-9.555,19.833c-0.09,2.163,0.461,4.378,0.934,6.524c0.22,0.996,0.147,1.62-0.465,2.469
			c-5.386,7.462-6.847,15.646-3.427,24.23c1.028,2.583,1.032,4.452,0.261,7.047c-2.484,8.38-1.546,16.291,4.586,23.089
			c0.379,0.424,0.465,1.317,0.359,1.938c-1.285,7.491,0.53,14.133,5.34,19.984c0.311,0.379,0.612,0.832,1.02,1.052
			c2.795,1.502,3.399,3.917,3.889,6.937c0.2,1.228,0.481,2.407,0.836,3.541c-28.609,3.913-56.883,10.327-84.329,19.254
			C13.479,373.072,10.807,373.423,7.996,375.067z"/>
	</g>
</g>
<g>
</g>
<g>
</g>
<g>
</g>
<g>
</g>
<g>
</g>
<g>
</g>
<g>
</g>
<g>
</g>
<g>
</g>
<g>
</g>
<g>
</g>
<g>
</g>
<g>
</g>
<g>
</g>
<g>
</g>
</svg>
