<svg version="1.1" xmlns="http://www.w3.org/2000/svg" xmlns:xlink="http://www.w3.org/1999/xlink" x="0px" y="0px" width="31.611px" height="31.611px" viewBox="0 0 31.611 31.611">
<g>
	<path d="M16.207,12.926c-1.268,2.979,5.197,3.232,8.113,4.69s4.247,4.501,4.942,4.501c3.613-4.818-2.026-11.41-2.026-11.41 s-2.154-0.634-2.601-2.726c-0.443-2.092,1.521-5.198,1.204-3.613c-0.314,1.584,1.966,2.409,2.221,3.486 c0.253,1.077-0.063,2.853-0.063,2.853s6.148,3.74,2.346,12.551c1.458,5.896-1.772,5.896-1.772,5.896s1.076,2.092-1.966,2.092 c-3.043,0-4.816,0-7.543,0c-2.728,0-0.763-2.282,0.441-2.282s2.185,0.038,2.662,0c-0.159,0.011-3.655-0.271-2.911-2.622 c-4.463,0.366-10.272-1.435-10.272-1.435s-2.823,6.768-4.915,6.704c-2.092-0.062-3.781,0.125-3.625-1	c0.344-2.25,3.438-0.094,3.722-4.375c0.19-2.471,1.584-4.311,1.584-4.311s-3.866-2.6-2.598-10.078 c-0.438,0.036-1.648,0.253-2.029-0.508c-0.38-0.76,0-1.647,0-1.647s-1.615-2.189-0.918-3.457c0.696-1.269,3.555-1.644,4.886-1.771 c0.542-5.167,2.825-5.079,6.375-3.557C17.293,0.212,18.795,9.217,16.207,12.926z"/>
</g>
</svg>
