<?xml version="1.0" encoding="iso-8859-1"?>
<!-- Generator: Adobe Illustrator 19.0.0, SVG Export Plug-In . SVG Version: 6.00 Build 0)  -->
<svg version="1.1" id="Capa_1" xmlns="http://www.w3.org/2000/svg" xmlns:xlink="http://www.w3.org/1999/xlink" x="0px" y="0px"
	 viewBox="0 0 480 480" style="enable-background:new 0 0 480 480;" xml:space="preserve">
<path style="fill:#808080;" d="M264,240c0-35.2,2.4-69.6,8-104C284,60,308,8,336,8H168c-34.4,0-81.6,79.2-93.6,184
	c-1.6,16-2.4,32-2.4,48c0,2.4,0,5.6,0,8c2.4,124.8,56.8,224,96,224h168C296,472,264,368,264,240z"/>
<path style="fill:#555555;" d="M272,136L272,136c-4.8,34.4-8,68.8-8,104c0,128,32,232,72,232s72-104,72-232S376,8,336,8
	C308,8,283.2,60,272,136z"/>
<ellipse style="fill:#454545;" cx="336" cy="240" rx="32" ry="112"/>
<path d="M168,480h168c52,0,80-124,80-240S388,0,336,0H168C120.8,0,64,110.4,64,240S120.8,480,168,480z M400,240
	c0,132-33.6,224-64,224s-64-92-64-224s33.6-224,64-224S400,108,400,240z M168,16h137.6c-12.8,16.8-22.4,36-28,56h-43.2l-21.6-14.4
	L204,71.2l24,16c1.6,0.8,3.2,1.6,4.8,1.6h41.6c-3.2,12.8-6.4,25.6-8.8,40h-38.4l-21.6-14.4l-8.8,13.6l24,16c1.6,0.8,3.2,1.6,4.8,1.6
	H264c-1.6,12.8-3.2,26.4-4,40h-40l-21.6-14.4l-8.8,13.6l24,16c1.6,0.8,3.2,1.6,4.8,1.6h40.8c-3.2,11.2-3.2,24-3.2,37.6h-37.6
	l-21.6-14.4l-8.8,13.6l24,16c1.6,0.8,3.2,1.6,4.8,1.6h40c0,13.6,0.8,26.4,1.6,40h-40l-21.6-14.4L188,296l24,16
	c1.6,0.8,3.2,1.6,4.8,1.6H260c1.6,13.6,3.2,27.2,5.6,40h-38.4l-21.6-14.4l-8.8,13.6l24,16c1.6,0.8,3.2,1.6,4.8,1.6h44
	c2.4,13.6,6.4,27.2,10.4,40h-35.2L223.2,396l-8.8,13.6l24,16c1.6,0.8,3.2,1.6,4.8,1.6h43.2c4.8,14.4,12.8,28,22.4,40H168
	c-12,0-28.8-14.4-44-40h36c1.6,0,3.2-0.8,4.8-1.6l24-16L180,396l-22.4,12h-42.4c-6.4-12.8-12-26.4-16-40H144c1.6,0,3.2-0.8,4.8-1.6
	l24-16l-8.8-13.6L141.6,352H96v4.8c-4-14.4-8-29.6-10.4-44.8H128c1.6,0,3.2-0.8,4.8-1.6l24-16l-8.8-13.6L125.6,296H83.2
	c-1.6-12.8-2.4-26.4-3.2-40h40c1.6,0,3.2-0.8,4.8-1.6l24-16l-8.8-13.6L117.6,240H80c0-13.6,0.8-27.2,1.6-40H120
	c1.6,0,3.2-0.8,4.8-1.6l24-16l-8.8-13.6L117.6,184H83.2c1.6-14.4,4-27.2,7.2-40H136c1.6,0,3.2-0.8,4.8-1.6l24-16l-8.8-13.6
	L133.6,128H94.4c4-13.6,8-27.2,13.6-40h44c1.6,0,3.2-0.8,4.8-1.6l24-16L172,56.8L149.6,72h-34.4C132.8,36.8,153.6,16,168,16z"/>
<path d="M336,360c27.2,0,40-62.4,40-120s-12.8-120-40-120s-40,62.4-40,120S308.8,360,336,360z M336,136c7.2,0,24,35.2,24,104
	s-16.8,104-24,104s-24-35.2-24-104S328.8,136,336,136z"/>
<g>
</g>
<g>
</g>
<g>
</g>
<g>
</g>
<g>
</g>
<g>
</g>
<g>
</g>
<g>
</g>
<g>
</g>
<g>
</g>
<g>
</g>
<g>
</g>
<g>
</g>
<g>
</g>
<g>
</g>
</svg>
