<svg id="Capa_1" enable-background="new 0 0 512 512" height="512" viewBox="0 0 512 512" width="512" xmlns="http://www.w3.org/2000/svg"><path d="m10.711 181.047 34.622 73.726c2.617 3.104 2.617 7.565 0 10.669l-34.622 73.727 127.659-37.547v-83.029z" fill="#db4655"/><path d="m204.793 334.834-22.908 36.653c-2.649 4.238-1.014 9.927 3.545 11.975 15.92 7.154 32.278 12.907 49.008 17.166 6.526 1.661 13.46.372 19.141-3.243l59.152-37.642z" fill="#db4655"/><path d="m333.264 122.437c-2.159-6.477-8.059-10.969-14.875-11.36-4.631-.265-9.282-.421-13.96-.421-50.184 0-98.136 13.368-142.238 37.633-4.894 2.693-5.345 9.599-.949 13.045l51.855 40.654 141.149-16.606z" fill="#e5646e"/><path d="m304.428 152.17c-74.453 0-142.866 32.552-196.938 86.962l-3.765 29.057c54.644 56.72 195.942 94.811 287.275 75.478l.782-176.038c-27.744-10.065-57.049-15.459-87.354-15.459z" fill="#ff8086"/><path d="m382.963 339.521c-14.858 2.385-29.982 3.616-45.323 3.616-86.52 0-166.269-38.838-230.149-104.003-1.266 1.275-2.515 2.548-3.766 3.847-9.158 9.506-9.158 24.749 0 34.255 54.645 56.719 124.512 90.81 200.703 90.81 30.319 0 59.633-5.406 87.388-15.481z" fill="#e5646e"/><path d="m391.782 167.629c-23.182 23.914-37.537 56.542-37.537 92.478 0 29.901 9.987 57.534 26.672 79.722l12.749 5.671c22.708-6.5 45.846-14.368 67.52-30.006 15.517-11.197 30.214-24.006 43.945-38.258 9.158-9.506 9.158-24.749 0-34.255-32.909-34.16-71.341-60.111-113.349-75.352z" fill="#f6d190"/><circle cx="412.365" cy="243.502" fill="#4b3f4e" r="16.606"/><path d="m461.182 315.488c-25.456 11.672-52.702 20.11-80.265 24.341 3.354 4.454 7.024 8.738 10.898 12.735 24.317-8.821 47.818-21.584 69.367-37.076z" fill="#ecbd83"/><path d="m10.711 181.047c-6.179-1.817-12.106 3.842-10.42 10.058 8.407 31.004 25.403 53.886 33.688 63.705 2.602 3.084 2.597 7.516-.005 10.6-8.286 9.822-25.277 32.702-33.682 63.699-1.686 6.217 4.24 11.877 10.42 10.06 34.657-10.193 58.457-42 58.457-78.125v-1.871c-.001-36.126-23.8-67.933-58.458-78.126z" fill="#bd4150"/></svg>