<svg id="Layer_1" enable-background="new 0 0 512.002 512.002" height="512" viewBox="0 0 512.002 512.002" width="512" xmlns="http://www.w3.org/2000/svg"><path d="m435.52 177.265c10.577 3.394 17.527 2.76 32.2 2.76 39.482 0 58.995-47.882 31.31-75.6l-11.03-11.03v-14.95c0-27.613-22.338-50.42-50.42-50.42-17.71 0-40.562-2.104-64.45 17.01-18.275 14.622-29.13 35.83-29.13 62.91 0 14.87-7.27 28.84-19.46 37.37l-93.65 65.55c-41.454 29.028-73.072 76.316-78.129 127.483-37.036-8.273-62.157-46.564-51.155-85.861 14.104-50.373 26.394-86.256 26.394-144.462 0-35.29-28.71-64-64-64s-64 28.71-64 64v24c0 8.836 7.164 16 16 16s16-7.164 16-16v-24c0-17.645 14.355-32 32-32s32 14.355 32 32c0 53.469-11.219 85.87-25.208 135.834-16.759 59.853 23.814 119.228 83.485 127.243 8.362 29.927 34.828 48.923 63.843 48.923 20.545 0 32.206-8.33 45.02-16.03l-5.2 15.61c-10.832 32.524 12.957 61.45 27.17 64.16 2.32.387-4.437.26 82.89.26 8.84 0 16-7.16 16-16s-7.16-16-16-16h-54.11c36.661-73.322 22.911-42.911 51.14-113.49 3.53-8.82 4.7-18.16 3.65-27.21 27.205-45.356 19.221-30.897 29.17-52.44.72 3.06 1.55 6.11 2.47 9.14 26.705 87.743 39.68 119.257 39.68 176 0 4.41-3.59 8-8 8h-8c0-8.84-7.16-16-16-16s-16 7.16-16 16c0 17.65 14.35 32 32 32h8c22.06 0 40-17.94 40-40 0-61.987-14.261-97.236-41.07-185.32-8.618-28.302-5.934-58.68 4.59-81.44z"/></svg>