<svg version="1.1" id="Layer_1" xmlns="http://www.w3.org/2000/svg" xmlns:xlink="http://www.w3.org/1999/xlink" x="0px" y="0px" viewBox="0 0 512.001 512.001" xml:space="preserve">
<path style="fill:#50ce84;" d="M365.681,204.045c-7.85-89.304-42.11-155.507-104.738-202.393c-2.94-2.204-6.944-2.204-9.886,0 C188.429,48.537,154.169,114.74,146.32,204.044c-6.955,79.117,7.161,177.856,43.152,301.863c1.397,4.819,6.772,7.405,11.307,5.42 L256,487.168l55.222,24.16c4.536,1.985,9.91-0.602,11.307-5.42C358.521,381.902,372.636,283.161,365.681,204.045z"/>
<path style="fill:#41c979;" d="M211.82,505.908c-35.992-124.006-50.107-222.747-43.152-301.863 c7.586-86.294,39.837-151.013,98.507-197.58c-2.047-1.625-4.12-3.231-6.231-4.812c-2.94-2.204-6.944-2.204-9.886,0 C188.43,48.538,154.17,114.741,146.321,204.045c-6.955,79.117,7.161,177.856,43.152,301.863c1.397,4.819,6.772,7.405,11.307,5.42 l11.22-4.909C211.938,506.25,211.871,506.083,211.82,505.908z"/>
<g>
	<path style="fill:#2ea25d;" d="M300.798,38.423c-45.288,29.038-98.984,51.88-138.597,86.425 c-4.732,14.127-8.502,29.035-11.319,44.748c45.034-45.562,114.756-70.729,167.274-108.837 C312.814,52.984,307.029,45.543,300.798,38.423z"/>
	<path style="fill:#2ea25d;" d="M175.239,453.684c2.793,10.994,5.78,22.206,8.96,33.639 c50.569-41.584,121.257-66.398,169.242-108.515c3.275-17.401,5.977-34.187,8.095-50.366 C314.462,381.18,231.992,406.718,175.239,453.684z"/>
	<path style="fill:#50ce84;" d="M360.467,166.065c-3.051-16.073-7.103-31.302-12.192-45.694 c-54.596,56.304-149.896,81.4-203.405,140.924c0.536,17.586,1.915,36.002,4.142,55.289 C207.59,255.628,310.281,231.081,360.467,166.065z"/>
</g>
<path style="fill:#50ce84;" d="M366.622,217.213c-0.254-4.445-0.56-8.842-0.94-13.169c-1.157-13.162-2.904-25.809-5.214-37.979 c-50.186,65.015-152.876,89.562-211.454,150.519c1.93,16.719,4.493,34.091,7.703,52.152 C218.892,310.718,321.099,285.862,366.622,217.213z"/>
<g>
	<path style="fill:#299254;" d="M162.201,124.847c-4.732,14.127-8.502,29.035-11.319,44.748 c8.379-8.477,17.615-16.247,27.434-23.527c4.037-15.843,9.153-30.792,15.373-44.872 C182.564,108.549,171.954,116.343,162.201,124.847z"/>
	<path style="fill:#299254;" d="M175.239,453.684c2.793,10.994,5.78,22.206,8.96,33.639c5.92-4.868,12.124-9.499,18.526-13.962 c-3.095-11.527-5.991-22.83-8.682-33.902C187.541,444.004,181.24,448.719,175.239,453.684z"/>
	<path style="fill:#41c979;" d="M166.981,240.257c-7.926,6.553-15.353,13.52-22.111,21.038c0.536,17.586,1.915,36.002,4.142,55.289 c6.337-6.594,13.193-12.761,20.44-18.601C167.646,277.759,166.823,258.535,166.981,240.257z"/>
</g>
<path style="fill:#41c979;" d="M149.012,316.584c1.93,16.719,4.493,34.091,7.703,52.152c6.167-5.754,12.732-11.178,19.593-16.356 c-3.018-18.896-5.301-37.018-6.855-54.398C162.205,303.823,155.351,309.99,149.012,316.584z"/>
</svg>
