<?xml version="1.0" encoding="UTF-8" standalone="no"?>
<svg
   xmlns:dc="http://purl.org/dc/elements/1.1/"
   xmlns:cc="http://creativecommons.org/ns#"
   xmlns:rdf="http://www.w3.org/1999/02/22-rdf-syntax-ns#"
   xmlns:svg="http://www.w3.org/2000/svg"
   xmlns="http://www.w3.org/2000/svg"
   xmlns:sodipodi="http://sodipodi.sourceforge.net/DTD/sodipodi-0.dtd"
   xmlns:inkscape="http://www.inkscape.org/namespaces/inkscape"
   sodipodi:docname="A2-green.svg"
   inkscape:version="1.0.2 (e86c8708, 2021-01-15)"
   id="svg8"
   version="1.1"
   viewBox="0 0 67.772217 66.145836"
   height="66.145836mm"
   width="67.772217mm">
  <defs
     id="defs2" />
  <sodipodi:namedview
     id="base"
     pagecolor="#ffffff"
     bordercolor="#666666"
     borderopacity="1.0"
     inkscape:pageopacity="0.0"
     inkscape:pageshadow="2"
     inkscape:zoom="1.1533322"
     inkscape:cx="115.30842"
     inkscape:cy="175.26963"
     inkscape:document-units="mm"
     inkscape:current-layer="layer2"
     inkscape:document-rotation="0"
     showgrid="false"
     inkscape:window-width="1256"
     inkscape:window-height="735"
     inkscape:window-x="124"
     inkscape:window-y="25"
     inkscape:window-maximized="0"
     inkscape:pagecheckerboard="true"
     inkscape:snap-bbox="true"
     inkscape:snap-global="false" />
  <metadata
     id="metadata5">
    <rdf:RDF>
      <cc:Work
         rdf:about="">
        <dc:format>image/svg+xml</dc:format>
        <dc:type
           rdf:resource="http://purl.org/dc/dcmitype/StillImage" />
        <dc:title />
      </cc:Work>
    </rdf:RDF>
  </metadata>
  <g
     inkscape:groupmode="layer"
     id="layer2"
     inkscape:label="Layer 2"
     style="display:inline;opacity:0.99"
     transform="translate(-53.90099,-18.144016)">
    <g
       id="g1057"
       style="opacity:1;fill:#388d64;fill-opacity:1;stroke:none"
       transform="matrix(0.81132604,0,0,0.81132604,10.169713,3.4233033)">
      <path
         style="display:inline;fill:#3f9d71;fill-opacity:1;stroke:none;stroke-width:0.264583px;stroke-linecap:butt;stroke-linejoin:miter;stroke-opacity:1"
         d="m 70.423743,53.192402 c -3.910351,0.0076 -6.243238,-3.029773 -6.243238,-6.742698 0,-5.736256 2.897105,-9.154062 -1.248648,-14.484318 -1.324986,-1.901397 -5.29362,-4.963044 -7.491889,-3.745941 -0.361164,0.240773 3.11136,4.348014 2.747026,7.991345 -0.432911,4.329107 -3.865115,7.304407 -4.245404,11.48756 -0.782709,8.609795 9.915094,16.232425 17.980531,16.232425"
         id="path856"
         sodipodi:nodetypes="csccssc" />
      <path
         style="opacity:1;fill:#3e9d6f;fill-opacity:1;stroke:none;stroke-width:0.264583px;stroke-linecap:butt;stroke-linejoin:miter;stroke-opacity:1"
         d="M 93.648595,18.979448 C 63.284271,24.055794 69.331617,64.766044 75.168606,79.41401 c 4.393117,11.184958 43.520434,14.247136 47.948084,2.996754 8.04725,-21.779347 0.5237,-71.28132 -29.468095,-63.431316"
         id="path850"
         sodipodi:nodetypes="cccc" />
      <path
         style="display:inline;fill:#3f9d71;fill-opacity:1;stroke:none;stroke-width:0.264583px;stroke-linecap:butt;stroke-linejoin:miter;stroke-opacity:1"
         d="m 125.34289,61.796574 c 5.1251,0.168703 10.48911,-2.256448 11.50892,-7.355524 1.2195,-6.097458 -2.12761,-9.689288 -4.2454,-14.983775 -3.17991,-7.949779 4.01797,-8.557694 4.74486,-10.738374 0.97599,-2.927948 -7.01917,-0.88002 -8.24107,0.749189 -5.74342,7.657891 6.87895,16.436737 -4.49514,20.228097"
         id="path854"
         sodipodi:nodetypes="cssscc" />
      <path
         style="fill:#3f9d71;fill-opacity:1;stroke:none;stroke-width:0.264583px;stroke-linecap:butt;stroke-linejoin:miter;stroke-opacity:1"
         d="m 79.414009,83.659413 c -4.033566,19.344557 7.345928,21.449317 14.484316,4.74486"
         id="path924"
         sodipodi:nodetypes="cc" />
      <path
         style="fill:#3f9d71;fill-opacity:1;stroke:none;stroke-width:0.264583px;stroke-linecap:butt;stroke-linejoin:miter;stroke-opacity:1"
         d="m 107.22426,87.676173 c 5.86642,16.936277 16.41552,12.026972 12.89567,-2.018923"
         id="path926"
         sodipodi:nodetypes="cc" />
    </g>
    <ellipse
       style="display:inline;opacity:1;fill:#2b6e4e;fill-opacity:1;stroke-width:0.325227;stroke-linejoin:round"
       id="path858"
       cx="75.208214"
       cy="26.217167"
       rx="7.2940359"
       ry="7.3953428" />
    <ellipse
       style="display:inline;opacity:1;fill:#1e1e1e;fill-opacity:1;stroke-width:0.150264;stroke-linejoin:round"
       id="path858-6"
       cx="102.76345"
       cy="24.900188"
       rx="3.4444063"
       ry="3.3431001" />
    <ellipse
       style="display:inline;opacity:1;fill:#2b6e4e;fill-opacity:1;stroke-width:0.32074;stroke-linejoin:round"
       id="path858-3"
       cx="103.47259"
       cy="26.318472"
       rx="7.1927299"
       ry="7.2940364" />
    <ellipse
       style="display:inline;opacity:1;fill:#ffffff;fill-opacity:1;stroke-width:0.208587;stroke-linejoin:round"
       id="path858-7"
       cx="103.27"
       cy="25.406715"
       rx="4.7613845"
       ry="4.660079" />
    <ellipse
       style="display:inline;opacity:1;fill:#ffffff;fill-opacity:1;stroke-width:0.208587;stroke-linejoin:round"
       id="path858-7-0"
       cx="74.802979"
       cy="25.30541"
       rx="4.7613845"
       ry="4.660079" />
    <ellipse
       style="display:inline;opacity:1;fill:#020000;fill-opacity:1;stroke-width:0.148037;stroke-linejoin:round"
       id="path858-7-5"
       cx="102.6115"
       cy="25.254759"
       rx="3.3431001"
       ry="3.3431005" />
    <ellipse
       style="display:inline;opacity:1;fill:#000000;fill-opacity:1;stroke-width:0.157009;stroke-linejoin:round"
       id="path858-7-0-0"
       cx="74.144478"
       cy="25.153454"
       rx="3.5457122"
       ry="3.5457127" />
    <ellipse
       style="display:inline;opacity:1;fill:#fff4f4;fill-opacity:1;stroke-width:0.0583179;stroke-linejoin:round"
       id="path858-7-5-4"
       cx="75.005592"
       cy="23.684515"
       rx="1.3169788"
       ry="1.3169792" />
    <ellipse
       style="display:inline;opacity:1;fill:#fff4f4;fill-opacity:1;stroke-width:0.0605193;stroke-linejoin:round"
       id="path858-7-5-4-5"
       cx="103.5739"
       cy="23.887127"
       rx="1.4182848"
       ry="1.3169792" />
    <path
       style="fill:none;stroke:#000000;stroke-width:1.10746;stroke-linecap:round;stroke-linejoin:round;stroke-miterlimit:4;stroke-dasharray:none;stroke-opacity:1"
       d="m 83.842304,32.39567 c 1.080062,4.175131 8.789244,4.065155 9.657461,-0.275926"
       id="path1061" />
    <path
       style="opacity:1;fill:none;stroke:#82cda9;stroke-width:1.26972;stroke-linecap:round;stroke-linejoin:miter;stroke-miterlimit:4;stroke-dasharray:none;stroke-opacity:1"
       d="m 70.597793,41.685224 c 0.08137,1.136789 0.37039,2.381424 0.09198,3.495078"
       id="path1065" />
    <path
       style="opacity:1;fill:none;stroke:#82cda9;stroke-width:1.26972;stroke-linecap:round;stroke-linejoin:miter;stroke-miterlimit:4;stroke-dasharray:none;stroke-opacity:1"
       d="m 74.368802,45.088328 c 0,1.348975 0,2.697955 0,4.046934"
       id="path1067" />
    <path
       style="opacity:1;fill:none;stroke:#82cda9;stroke-width:1.26972;stroke-linecap:round;stroke-linejoin:miter;stroke-miterlimit:4;stroke-dasharray:none;stroke-opacity:1"
       d="m 78.691662,40.765464 v 2.759275"
       id="path1069" />
    <path
       style="opacity:1;fill:none;stroke:#82cda9;stroke-width:1.26972;stroke-linecap:round;stroke-linejoin:miter;stroke-miterlimit:4;stroke-dasharray:none;stroke-opacity:1"
       d="m 79.703396,50.790825 c -0.03066,0.827782 -0.06132,1.655563 -0.09198,2.483346"
       id="path1071" />
    <path
       style="opacity:1;fill:none;stroke:#82cda9;stroke-width:1.26972;stroke-linecap:round;stroke-linejoin:miter;stroke-miterlimit:4;stroke-dasharray:none;stroke-opacity:1"
       d="m 76.668195,56.76925 c -0.03066,0.919758 -0.06132,1.839515 -0.09198,2.759273 0,0.03066 0,0.06132 0,0.09198"
       id="path1073" />
    <path
       style="opacity:1;fill:none;stroke:#82cda9;stroke-width:1.26972;stroke-linecap:round;stroke-linejoin:miter;stroke-miterlimit:4;stroke-dasharray:none;stroke-opacity:1"
       d="m 70.22989,53.458122 0.275928,2.943224"
       id="path1075" />
    <path
       style="opacity:1;fill:none;stroke:#82cda9;stroke-width:1.26972;stroke-linecap:round;stroke-linejoin:miter;stroke-miterlimit:4;stroke-dasharray:none;stroke-opacity:1"
       d="m 84.762062,44.720424 c 0.03066,1.134367 0.06132,2.268734 0.09198,3.403104"
       id="path1077" />
    <path
       style="opacity:1;fill:none;stroke:#82cda9;stroke-width:1.26972;stroke-linecap:round;stroke-linejoin:miter;stroke-miterlimit:4;stroke-dasharray:none;stroke-opacity:1"
       d="m 87.245408,50.790825 c 0.09198,1.257002 0.183951,2.514004 0.275928,3.771006"
       id="path1079" />
    <path
       style="opacity:1;fill:none;stroke:#82cda9;stroke-width:1.26972;stroke-linecap:round;stroke-linejoin:miter;stroke-miterlimit:4;stroke-dasharray:none;stroke-opacity:1"
       d="m 104.53686,45.180302 c 0.27592,1.165027 0.55185,2.330052 0.82777,3.49508"
       id="path1081" />
    <path
       style="opacity:1;fill:none;stroke:#82cda9;stroke-width:1.26972;stroke-linecap:round;stroke-linejoin:miter;stroke-miterlimit:4;stroke-dasharray:none;stroke-opacity:1"
       d="m 99.386207,46.835868 -0.275925,3.0352"
       id="path1083" />
    <path
       style="opacity:1;fill:none;stroke:#82cda9;stroke-width:1.26972;stroke-linecap:round;stroke-linejoin:miter;stroke-miterlimit:4;stroke-dasharray:none;stroke-opacity:1"
       d="m 92.671982,50.146994 c 0.18395,1.103709 0.3679,2.207419 0.55185,3.311128"
       id="path1085" />
    <path
       style="opacity:1;fill:none;stroke:#82cda9;stroke-width:1.26972;stroke-linecap:round;stroke-linejoin:miter;stroke-miterlimit:4;stroke-dasharray:none;stroke-opacity:1"
       d="m 108.39984,54.285905 c -0.092,0.981073 -0.18396,1.962149 -0.27593,2.943223 0,0.03066 0,0.06132 0,0.09198"
       id="path1087" />
    <path
       style="opacity:1;fill:none;stroke:#82cda9;stroke-width:1.26972;stroke-linecap:round;stroke-linejoin:miter;stroke-miterlimit:4;stroke-dasharray:none;stroke-opacity:1"
       d="m 97.362748,56.861225 c 0.2146,1.28766 0.429209,2.575323 0.643825,3.862983"
       id="path1089" />
    <path
       style="opacity:1;fill:none;stroke:#82cda9;stroke-width:1.26972;stroke-linecap:round;stroke-linejoin:miter;stroke-miterlimit:4;stroke-dasharray:none;stroke-opacity:1"
       d="m 103.24919,60.632231 c -0.092,1.257002 -0.18395,2.514007 -0.27592,3.771008"
       id="path1091" />
    <path
       style="opacity:1;fill:none;stroke:#82cda9;stroke-width:1.26972;stroke-linecap:round;stroke-linejoin:miter;stroke-miterlimit:4;stroke-dasharray:none;stroke-opacity:1"
       d="m 83.29045,56.493323 c -0.03066,1.165026 -0.06132,2.330051 -0.09198,3.49508 0,0.06132 0,0.122632 0,0.18395"
       id="path1093" />
    <path
       style="opacity:1;fill:none;stroke:#82cda9;stroke-width:1.26972;stroke-linecap:round;stroke-linejoin:miter;stroke-miterlimit:4;stroke-dasharray:none;stroke-opacity:1"
       d="m 81.726862,65.6909 c 0.122635,1.440953 0.24527,2.881906 0.367903,4.32286"
       id="path1095" />
    <path
       style="opacity:1;fill:none;stroke:#82cda9;stroke-width:1.26972;stroke-linecap:round;stroke-linejoin:miter;stroke-miterlimit:4;stroke-dasharray:none;stroke-opacity:1"
       d="m 75.47251,63.667432 c 0.306586,1.165026 0.613171,2.330054 0.919758,3.49508"
       id="path1097" />
    <path
       style="opacity:1;fill:none;stroke:#82cda9;stroke-width:1.26972;stroke-linecap:round;stroke-linejoin:miter;stroke-miterlimit:4;stroke-dasharray:none;stroke-opacity:1"
       d="m 87.981213,69.829808 c 0.429222,1.165028 0.858441,2.330053 1.287663,3.49508"
       id="path1099" />
    <path
       style="opacity:1;fill:none;stroke:#82cda9;stroke-width:1.26972;stroke-linecap:round;stroke-linejoin:miter;stroke-miterlimit:4;stroke-dasharray:none;stroke-opacity:1"
       d="m 94.051615,66.426705 c 0.306583,1.165028 0.613167,2.330053 0.919758,3.49508 0,0.03066 0,0.06132 0,0.09198"
       id="path1101" />
    <path
       style="opacity:1;fill:none;stroke:#82cda9;stroke-width:1.26972;stroke-linecap:round;stroke-linejoin:miter;stroke-miterlimit:4;stroke-dasharray:none;stroke-opacity:1"
       d="m 100.9498,69.553882 c 0.0613,0.797123 0.12263,1.594246 0.18395,2.39137"
       id="path1103" />
    <path
       style="opacity:1;fill:none;stroke:#82cda9;stroke-width:1.26972;stroke-linecap:round;stroke-linejoin:miter;stroke-miterlimit:4;stroke-dasharray:none;stroke-opacity:1"
       d="m 89.176898,60.816183 -0.09197,1.471614"
       id="path1105" />
    <path
       style="opacity:1;fill:none;stroke:#82cda9;stroke-width:1.26972;stroke-linecap:round;stroke-linejoin:miter;stroke-miterlimit:4;stroke-dasharray:none;stroke-opacity:1"
       d="m 100.03003,36.626556 0.91977,3.862983"
       id="path1107" />
  </g>
</svg>
